# OBJ generated by ONSHAPE BY PTC INC, 1.206 Units = meters
mtllib indenter_mount.mtl
g Part 1
v -0.03 1.83697e-18 0 
v -0.03 1.83697e-18 0.005 
v -0.0298241 0.00324357 0.005 
v -0.0298241 0.00324357 0 
v -0.0292986 0.00644911 0.005 
v -0.0292986 0.00644911 0 
v -0.0284296 0.00957905 0.005 
v -0.0284296 0.00957905 0 
v -0.0272273 0.0125967 0.005 
v -0.0272273 0.0125967 0 
v -0.0257057 0.0154666 0.005 
v -0.0257057 0.0154666 0 
v -0.0238828 0.0181552 0.005 
v -0.0238828 0.0181552 0 
v -0.0217799 0.020631 0.005 
v -0.0217799 0.020631 0 
v -0.0194216 0.0228649 0.005 
v -0.0194216 0.0228649 0 
v -0.0168356 0.0248307 0.005 
v -0.0168356 0.0248307 0 
v -0.0140523 0.0265054 0.005 
v -0.0111041 0.0278693 0 
v -0.01205 0.0274317 0 
v -0.01205 0.0274317 0.005 
v -0.0140523 0.0265054 0 
v -0.0111041 0.0278693 0.005 
v -0.00802585 0.0289065 0.005 
v -0.00802585 0.0289065 0 
v -0.00485346 0.0296048 0.005 
v -0.00485346 0.0296048 0 
v -0.00162417 0.029956 0.005 
v -0.00162417 0.029956 0 
v 0.00162417 0.029956 0.005 
v 0.00162417 0.029956 0 
v 0.00485346 0.0296048 0.005 
v 0.00485346 0.0296048 0 
v 0.00802585 0.0289065 0.005 
v 0.00802585 0.0289065 0 
v 0.0111041 0.0278693 0.005 
v 0.0111041 0.0278693 0 
v 0.0140523 0.0265054 0.005 
v 0.0140523 0.0265054 0 
v 0.0168356 0.0248307 0.005 
v 0.0168356 0.0248307 0 
v 0.0194216 0.0228649 0.005 
v 0.0194216 0.0228649 0 
v 0.0217799 0.020631 0.005 
v 0.0217799 0.020631 0 
v 0.0238828 0.0181552 0.005 
v 0.0238828 0.0181552 0 
v 0.0257057 0.0154666 0.005 
v 0.0257057 0.0154666 0 
v 0.0272273 0.0125967 0.005 
v 0.0272273 0.0125967 0 
v 0.0284296 0.00957905 0.005 
v 0.0284296 0.00957905 0 
v 0.0292986 0.00644911 0.005 
v 0.0292986 0.00644911 0 
v 0.0298241 0.00324357 0.005 
v 0.0298241 0.00324357 0 
v 0.03 1.28588e-17 0.005 
v 0.03 5.51091e-18 0 
v 0.0298241 -0.00324357 0.005 
v 0.0298241 -0.00324357 0 
v 0.0292986 -0.00644911 0.005 
v 0.0292986 -0.00644911 0 
v 0.0284296 -0.00957905 0.005 
v 0.0272273 -0.0125967 0 
v 0.0274451 -0.01205 0 
v 0.0274451 -0.01205 0.005 
v 0.0284296 -0.00957905 0 
v 0.0272273 -0.0125967 0.005 
v 0.0257057 -0.0154666 0.005 
v 0.0257057 -0.0154666 0 
v 0.0238828 -0.0181552 0.005 
v 0.0238828 -0.0181552 0 
v 0.0217799 -0.020631 0.005 
v 0.0217799 -0.020631 0 
v 0.0194216 -0.0228649 0.005 
v 0.0194216 -0.0228649 0 
v 0.0168356 -0.0248307 0.005 
v 0.0168356 -0.0248307 0 
v 0.0140523 -0.0265054 0.005 
v 0.0140523 -0.0265054 0 
v 0.0111041 -0.0278693 0.005 
v 0.0111041 -0.0278693 0 
v 0.00802585 -0.0289065 0.005 
v 0.00802585 -0.0289065 0 
v 0.00485346 -0.0296048 0.005 
v 0.00485346 -0.0296048 0 
v 0.00162417 -0.029956 0.005 
v 0.00162417 -0.029956 0 
v -0.00162417 -0.029956 0.005 
v -0.00162417 -0.029956 0 
v -0.00485346 -0.0296048 0.005 
v -0.00485346 -0.0296048 0 
v -0.00802585 -0.0289065 0.005 
v -0.00802585 -0.0289065 0 
v -0.0111041 -0.0278693 0.005 
v -0.0140523 -0.0265054 0 
v -0.01205 -0.0274317 0 
v -0.01205 -0.0274317 0.005 
v -0.0111041 -0.0278693 0 
v -0.0140523 -0.0265054 0.005 
v -0.0168356 -0.0248307 0.005 
v -0.0168356 -0.0248307 0 
v -0.0194216 -0.0228649 0.005 
v -0.0194216 -0.0228649 0 
v -0.0217799 -0.020631 0.005 
v -0.0217799 -0.020631 0 
v -0.0238828 -0.0181552 0.005 
v -0.0238828 -0.0181552 0 
v -0.0257057 -0.0154666 0.005 
v -0.0257057 -0.0154666 0 
v -0.0272273 -0.0125967 0.005 
v -0.0284296 -0.00957905 0 
v -0.0274451 -0.01205 0 
v -0.0274451 -0.01205 0.005 
v -0.0272273 -0.0125967 0 
v -0.0284296 -0.00957905 0.005 
v -0.0292986 -0.00644911 0.005 
v -0.0292986 -0.00644911 0 
v -0.0298241 -0.00324357 0.005 
v -0.0298241 -0.00324357 0 
v -0.0161949 0.0204055 0.005 
v -0.0159165 0.020238 0.005 
v -0.0152118 0.0195704 0.005 
v -0.0150295 0.0193016 0.005 
v -0.0156579 0.0200414 0.005 
v -0.0167975 0.0206456 0.005 
v -0.0164897 0.0205418 0.005 
v -0.0156579 0.0154684 0.005 
v -0.0159165 0.0152719 0.005 
v -0.0154221 0.019818 0.005 
v -0.0174377 0.0207505 0.005 
v -0.0171147 0.0207154 0.005 
v -0.0180854 0.0207154 0.005 
v -0.0164897 0.014968 0.005 
v -0.0167975 0.0148643 0.005 
v -0.0154221 0.0156918 0.005 
v -0.0148774 0.0190146 0.005 
v -0.0184027 0.0206456 0.005 
v -0.0190053 0.0204055 0.005 
v -0.0187105 0.0205418 0.005 
v -0.0195422 0.0200414 0.005 
v -0.020443 0.0187128 0.005 
v -0.0205825 0.0180793 0.005 
v -0.0205299 0.0183998 0.005 
v -0.0205825 0.0174306 0.005 
v -0.0206001 0.0177549 0.005 
v -0.0171147 0.0147944 0.005 
v -0.0152118 0.0159394 0.005 
v -0.0148774 0.0164953 0.005 
v -0.0150295 0.0162083 0.005 
v -0.0192836 0.020238 0.005 
v -0.0190053 0.0151044 0.005 
v -0.0192836 0.0152719 0.005 
v -0.0161949 0.0151044 0.005 
v -0.0146177 0.0174306 0.005 
v -0.0146702 0.01711 0.005 
v -0.0147571 0.0187128 0.005 
v -0.0146702 0.0183998 0.005 
v -0.0177625 0.0207505 0.005 
v -0.0203228 0.0190146 0.005 
v -0.0201707 0.0193016 0.005 
v -0.0199884 0.0159394 0.005 
v -0.0201707 0.0162083 0.005 
v -0.0197781 0.0156918 0.005 
v -0.0195422 0.0154684 0.005 
v -0.0187105 0.014968 0.005 
v -0.0184027 0.0148643 0.005 
v -0.0147571 0.016797 0.005 
v -0.0146001 0.0177549 0.005 
v -0.0146177 0.0180793 0.005 
v -0.020443 0.016797 0.005 
v -0.0205299 0.01711 0.005 
v -0.0203228 0.0164953 0.005 
v -0.0177625 0.0147593 0.005 
v -0.0174377 0.0147593 0.005 
v -0.0199884 0.0195704 0.005 
v -0.0197781 0.019818 0.005 
v -0.0180854 0.0147944 0.005 
v -0.0163497 -0.0149495 0.005 
v -0.0160714 -0.015117 0.005 
v -0.0153666 -0.0157846 0.005 
v -0.0151843 -0.0160534 0.005 
v -0.0158128 -0.0153136 0.005 
v -0.0169523 -0.0147094 0.005 
v -0.0166445 -0.0148132 0.005 
v -0.0194385 -0.015117 0.005 
v -0.0191601 -0.0149495 0.005 
v -0.0169523 -0.0204907 0.005 
v -0.0172696 -0.0205606 0.005 
v -0.0163497 -0.0202506 0.005 
v -0.0166445 -0.020387 0.005 
v -0.0158128 -0.0198866 0.005 
v -0.0160714 -0.0200831 0.005 
v -0.0155769 -0.015537 0.005 
v -0.0175925 -0.0146045 0.005 
v -0.0172696 -0.0146396 0.005 
v -0.0196971 -0.0153136 0.005 
v -0.0201432 -0.0157846 0.005 
v -0.0199329 -0.015537 0.005 
v -0.0203255 -0.0160534 0.005 
v -0.0204776 -0.0163404 0.005 
v -0.0207373 -0.0172757 0.005 
v -0.0206848 -0.0169552 0.005 
v -0.0155769 -0.0196632 0.005 
v -0.0150322 -0.0163404 0.005 
v -0.0182403 -0.0146396 0.005 
v -0.0179173 -0.0146045 0.005 
v -0.0205979 -0.0166422 0.005 
v -0.0207373 -0.0179244 0.005 
v -0.0207549 -0.0176001 0.005 
v -0.0153666 -0.0194156 0.005 
v -0.0150322 -0.0188597 0.005 
v -0.0151843 -0.0191467 0.005 
v -0.0147725 -0.0179244 0.005 
v -0.0148251 -0.018245 0.005 
v -0.0185575 -0.0147094 0.005 
v -0.0179173 -0.0205957 0.005 
v -0.0182403 -0.0205606 0.005 
v -0.0175925 -0.0205957 0.005 
v -0.014912 -0.018558 0.005 
v -0.0147549 -0.0176001 0.005 
v -0.014912 -0.0166422 0.005 
v -0.0148251 -0.0169552 0.005 
v -0.0188653 -0.0148132 0.005 
v -0.0205979 -0.018558 0.005 
v -0.0206848 -0.018245 0.005 
v -0.0204776 -0.0188597 0.005 
v -0.0199329 -0.0196632 0.005 
v -0.0201432 -0.0194156 0.005 
v -0.0194385 -0.0200831 0.005 
v -0.0188653 -0.020387 0.005 
v -0.0191601 -0.0202506 0.005 
v -0.0147725 -0.0172757 0.005 
v -0.0203255 -0.0191467 0.005 
v -0.0196971 -0.0198866 0.005 
v -0.0185575 -0.0204907 0.005 
v 0.0190053 -0.0151044 0.005 
v 0.0192836 -0.0152719 0.005 
v 0.0184027 -0.0148643 0.005 
v 0.0187105 -0.014968 0.005 
v 0.0146177 -0.0174306 0.005 
v 0.0146702 -0.01711 0.005 
v 0.0146177 -0.0180793 0.005 
v 0.0180854 -0.0207154 0.005 
v 0.0177625 -0.0147593 0.005 
v 0.0180854 -0.0147944 0.005 
v 0.0147571 -0.016797 0.005 
v 0.0146001 -0.0177549 0.005 
v 0.0161949 -0.0204055 0.005 
v 0.0184027 -0.0206456 0.005 
v 0.0190053 -0.0204055 0.005 
v 0.0187105 -0.0205418 0.005 
v 0.0195422 -0.0200414 0.005 
v 0.0167975 -0.0148643 0.005 
v 0.0171147 -0.0147944 0.005 
v 0.0164897 -0.014968 0.005 
v 0.0159165 -0.0152719 0.005 
v 0.0161949 -0.0151044 0.005 
v 0.0148774 -0.0164953 0.005 
v 0.0150295 -0.0162083 0.005 
v 0.0156579 -0.0200414 0.005 
v 0.0164897 -0.0205418 0.005 
v 0.0167975 -0.0206456 0.005 
v 0.0197781 -0.019818 0.005 
v 0.0174377 -0.0147593 0.005 
v 0.0156579 -0.0154684 0.005 
v 0.0152118 -0.0159394 0.005 
v 0.0154221 -0.0156918 0.005 
v 0.0147571 -0.0187128 0.005 
v 0.0146702 -0.0183998 0.005 
v 0.0150295 -0.0193016 0.005 
v 0.0152118 -0.0195704 0.005 
v 0.0154221 -0.019818 0.005 
v 0.0159165 -0.020238 0.005 
v 0.0174377 -0.0207505 0.005 
v 0.0171147 -0.0207154 0.005 
v 0.0177625 -0.0207505 0.005 
v 0.0192836 -0.020238 0.005 
v 0.020443 -0.0187128 0.005 
v 0.0205825 -0.0180793 0.005 
v 0.0205299 -0.0183998 0.005 
v 0.0195422 -0.0154684 0.005 
v 0.0197781 -0.0156918 0.005 
v 0.0148774 -0.0190146 0.005 
v 0.0201707 -0.0193016 0.005 
v 0.0199884 -0.0195704 0.005 
v 0.0205825 -0.0174306 0.005 
v 0.0206001 -0.0177549 0.005 
v 0.020443 -0.016797 0.005 
v 0.0205299 -0.01711 0.005 
v 0.0203228 -0.0190146 0.005 
v 0.0203228 -0.0164953 0.005 
v 0.0201707 -0.0162083 0.005 
v 0.0199884 -0.0159394 0.005 
v -0.00153693 -0.00937485 0.005 
v -0.00254152 -0.00915372 0.005 
v 0.00051432 -0.00948607 0.005 
v -0.00051432 -0.00948607 0.005 
v 0.00153693 -0.00937485 0.005 
v 0.00814014 -0.00489776 0.005 
v 0.00756288 -0.00574916 0.005 
v 0.00351631 -0.00882528 0.005 
v 0.00254152 -0.00915372 0.005 
v 0.00862197 -0.00398895 0.005 
v 0.00900271 -0.00303336 0.005 
v 0.014912 0.018558 0.005 
v 0.0150322 0.0188597 0.005 
v -0.00351631 0.00882528 0.005 
v 0.0147725 0.0172757 0.005 
v 0.0147549 0.0176001 0.005 
v -0.00756288 0.00574916 0.005 
v -0.00689696 0.00653314 0.005 
v -0.00862197 0.00398895 0.005 
v -0.00814014 0.00489776 0.005 
v 0.00533128 -0.00786305 0.005 
v 0.00444988 -0.00839336 0.005 
v 0.00689696 -0.00653314 0.005 
v 0.00615017 -0.00724054 0.005 
v 0.0194385 0.0200831 0.005 
v 0.0147725 0.0179244 0.005 
v 0.0148251 0.018245 0.005 
v -0.00444988 0.00839336 0.005 
v -0.00615017 0.00724054 0.005 
v -0.00533128 0.00786305 0.005 
v -0.00944431 0.00102713 0.005 
v -0.0092779 0.00204222 0.005 
v -0.0095 5.81707e-19 0.005 
v -0.00814014 -0.00489776 0.005 
v -0.00862197 -0.00398895 0.005 
v -0.00615017 -0.00724054 0.005 
v -0.00689696 -0.00653314 0.005 
v 0.0191601 0.0202506 0.005 
v 0.0185575 0.0204907 0.005 
v 0.0188653 0.020387 0.005 
v 0.0179173 0.0205957 0.005 
v 0.0182403 0.0205606 0.005 
v 0.0169523 0.0204907 0.005 
v 0.0172696 0.0205606 0.005 
v 0.0163497 0.0202506 0.005 
v 0.0166445 0.020387 0.005 
v -0.00900271 0.00303336 0.005 
v -0.00944431 -0.00102713 0.005 
v -0.00900271 -0.00303336 0.005 
v -0.0092779 -0.00204222 0.005 
v -0.00756288 -0.00574916 0.005 
v -0.00533128 -0.00786305 0.005 
v -0.00351631 -0.00882528 0.005 
v -0.00444988 -0.00839336 0.005 
v 0.0092779 -0.00204222 0.005 
v 0.00944431 -0.00102713 0.005 
v 0.0182403 0.0146396 0.005 
v 0.0179173 0.0146045 0.005 
v 0.0188653 0.0148132 0.005 
v 0.0185575 0.0147094 0.005 
v 0.0158128 0.0198866 0.005 
v 0.0160714 0.0200831 0.005 
v 0.0153666 0.0157846 0.005 
v 0.00533128 0.00786305 0.005 
v 0.00615017 0.00724054 0.005 
v 0.0160714 0.015117 0.005 
v 0.0158128 0.0153136 0.005 
v 0.00756288 0.00574916 0.005 
v 0.0194385 0.015117 0.005 
v 0.0151843 0.0191467 0.005 
v 0.0095 1.74512e-18 0.005 
v 0.0155769 0.015537 0.005 
v 0.00689696 0.00653314 0.005 
v 0.00814014 0.00489776 0.005 
v 0.0163497 0.0149495 0.005 
v 0.0191601 0.0149495 0.005 
v 0.0196971 0.0153136 0.005 
v 0.0175925 0.0205957 0.005 
v 0.0153666 0.0194156 0.005 
v 0.0151843 0.0160534 0.005 
v 0.00444988 0.00839336 0.005 
v -0.00051432 0.00948607 0.005 
v 0.00051432 0.00948607 0.005 
v 0.0204776 0.0163404 0.005 
v 0.0207373 0.0172757 0.005 
v 0.0206848 0.0169552 0.005 
v 0.0196971 0.0198866 0.005 
v 0.0199329 0.0196632 0.005 
v 0.0155769 0.0196632 0.005 
v 0.00351631 0.00882528 0.005 
v 0.00153693 0.00937485 0.005 
v 0.00254152 0.00915372 0.005 
v -0.00153693 0.00937485 0.005 
v -0.00254152 0.00915372 0.005 
v 0.0169523 0.0147094 0.005 
v 0.0092779 0.00204222 0.005 
v 0.00944431 0.00102713 0.005 
v 0.00862197 0.00398895 0.005 
v 0.00900271 0.00303336 0.005 
v 0.0166445 0.0148132 0.005 
v 0.0175925 0.0146045 0.005 
v 0.0172696 0.0146396 0.005 
v 0.0199329 0.015537 0.005 
v 0.0201432 0.0157846 0.005 
v 0.0205979 0.0166422 0.005 
v 0.014912 0.0166422 0.005 
v 0.0148251 0.0169552 0.005 
v 0.0203255 0.0160534 0.005 
v 0.0207549 0.0176001 0.005 
v 0.0205979 0.018558 0.005 
v 0.0206848 0.018245 0.005 
v 0.0207373 0.0179244 0.005 
v 0.0204776 0.0188597 0.005 
v 0.0150322 0.0163404 0.005 
v 0.0201432 0.0194156 0.005 
v 0.0203255 0.0191467 0.005 
v -0.01205 -0.01205 0.005 
v 0.0205825 -0.0174306 0 
v 0.020443 -0.0187128 0 
v 0.0205299 -0.0183998 0 
v 0.0203228 -0.0190146 0 
v 0.0192836 -0.020238 0 
v 0.0195422 -0.0200414 0 
v 0.0177625 -0.0207505 0 
v 0.0180854 -0.0207154 0 
v 0.0205825 -0.0180793 0 
v 0.0206001 -0.0177549 0 
v 0.0199884 -0.0195704 0 
v 0.0201707 -0.0193016 0 
v 0.0184027 -0.0206456 0 
v 0.0187105 -0.0205418 0 
v 0.0161949 -0.0204055 0 
v 0.0164897 -0.0205418 0 
v 0.0174377 -0.0147593 0 
v 0.0197781 -0.019818 0 
v 0.0190053 -0.0204055 0 
v 0.0167975 -0.0206456 0 
v 0.0171147 -0.0207154 0 
v 0.0159165 -0.020238 0 
v 0.0156579 -0.0200414 0 
v 0.0147571 -0.016797 0 
v 0.0146702 -0.01711 0 
v 0.0171147 -0.0147944 0 
v 0.0184027 -0.0148643 0 
v 0.0180854 -0.0147944 0 
v 0.0190053 -0.0151044 0 
v 0.0187105 -0.014968 0 
v 0.0205299 -0.01711 0 
v 0.0154221 -0.019818 0 
v 0.0152118 -0.0195704 0 
v 0.0150295 -0.0193016 0 
v 0.0148774 -0.0164953 0 
v 0.0164897 -0.014968 0 
v 0.0161949 -0.0151044 0 
v 0.0167975 -0.0148643 0 
v 0.0195422 -0.0154684 0 
v 0.0192836 -0.0152719 0 
v 0.0201707 -0.0162083 0 
v 0.0203228 -0.0164953 0 
v 0.0174377 -0.0207505 0 
v 0.0148774 -0.0190146 0 
v 0.0147571 -0.0187128 0 
v 0.0146177 -0.0174306 0 
v 0.0152118 -0.0159394 0 
v 0.0150295 -0.0162083 0 
v 0.0156579 -0.0154684 0 
v 0.0154221 -0.0156918 0 
v 0.0159165 -0.0152719 0 
v 0.0177625 -0.0147593 0 
v 0.020443 -0.016797 0 
v 0.0146177 -0.0180793 0 
v 0.0146702 -0.0183998 0 
v 0.0146001 -0.0177549 0 
v 0.0199884 -0.0159394 0 
v 0.0197781 -0.0156918 0 
v -0.0153666 -0.0194156 0 
v -0.0151843 -0.0191467 0 
v -0.0155769 -0.0196632 0 
v -0.0163497 -0.0202506 0 
v -0.0169523 -0.0204907 0 
v -0.0179173 -0.0146045 0 
v -0.0158128 -0.0198866 0 
v -0.0160714 -0.0200831 0 
v -0.0166445 -0.020387 0 
v -0.0175925 -0.0205957 0 
v -0.0172696 -0.0205606 0 
v -0.0182403 -0.0146396 0 
v -0.0169523 -0.0147094 0 
v -0.0172696 -0.0146396 0 
v -0.0163497 -0.0149495 0 
v -0.0166445 -0.0148132 0 
v -0.0158128 -0.0153136 0 
v -0.0160714 -0.015117 0 
v -0.0147725 -0.0179244 0 
v -0.014912 -0.018558 0 
v -0.0148251 -0.018245 0 
v -0.0185575 -0.0147094 0 
v -0.0155769 -0.015537 0 
v -0.0147549 -0.0176001 0 
v -0.0150322 -0.0188597 0 
v -0.0175925 -0.0146045 0 
v -0.0150322 -0.0163404 0 
v -0.0151843 -0.0160534 0 
v -0.0179173 -0.0205957 0 
v -0.0182403 -0.0205606 0 
v -0.0188653 -0.0148132 0 
v -0.0191601 -0.0149495 0 
v -0.0153666 -0.0157846 0 
v -0.0147725 -0.0172757 0 
v -0.0148251 -0.0169552 0 
v -0.0185575 -0.0204907 0 
v -0.0205979 -0.0166422 0 
v -0.0206848 -0.0169552 0 
v -0.0204776 -0.0163404 0 
v -0.0203255 -0.0160534 0 
v -0.0196971 -0.0153136 0 
v -0.0199329 -0.015537 0 
v -0.0194385 -0.015117 0 
v -0.0188653 -0.020387 0 
v -0.0194385 -0.0200831 0 
v -0.0191601 -0.0202506 0 
v -0.0196971 -0.0198866 0 
v -0.0203255 -0.0191467 0 
v -0.0201432 -0.0194156 0 
v -0.0207373 -0.0172757 0 
v -0.0207549 -0.0176001 0 
v -0.0201432 -0.0157846 0 
v -0.014912 -0.0166422 0 
v -0.0199329 -0.0196632 0 
v -0.0205979 -0.018558 0 
v -0.0204776 -0.0188597 0 
v -0.0207373 -0.0179244 0 
v -0.0206848 -0.018245 0 
v -0.0192836 0.020238 0 
v -0.0195422 0.0200414 0 
v -0.0152118 0.0159394 0 
v -0.0150295 0.0162083 0 
v -0.0190053 0.0204055 0 
v -0.0184027 0.0206456 0 
v -0.0187105 0.0205418 0 
v -0.0177625 0.0207505 0 
v -0.0180854 0.0207154 0 
v -0.0167975 0.0206456 0 
v -0.0171147 0.0207154 0 
v -0.0161949 0.0204055 0 
v -0.0164897 0.0205418 0 
v -0.0154221 0.0156918 0 
v -0.0171147 0.0147944 0 
v -0.0167975 0.0148643 0 
v -0.0156579 0.0200414 0 
v -0.0159165 0.020238 0 
v -0.0156579 0.0154684 0 
v -0.0161949 0.0151044 0 
v -0.0159165 0.0152719 0 
v -0.0164897 0.014968 0 
v -0.0154221 0.019818 0 
v -0.0146177 0.0174306 0 
v -0.0147571 0.016797 0 
v -0.0146702 0.01711 0 
v -0.0174377 0.0147593 0 
v -0.0174377 0.0207505 0 
v -0.0148774 0.0190146 0 
v -0.0150295 0.0193016 0 
v -0.0146001 0.0177549 0 
v -0.0148774 0.0164953 0 
v -0.0152118 0.0195704 0 
v -0.0177625 0.0147593 0 
v -0.020443 0.0187128 0 
v -0.0205299 0.0183998 0 
v -0.0203228 0.0190146 0 
v -0.0146177 0.0180793 0 
v -0.0146702 0.0183998 0 
v -0.0180854 0.0147944 0 
v -0.0190053 0.0151044 0 
v -0.0197781 0.019818 0 
v -0.0147571 0.0187128 0 
v -0.0184027 0.0148643 0 
v -0.0187105 0.014968 0 
v -0.0192836 0.0152719 0 
v -0.0197781 0.0156918 0 
v -0.0199884 0.0159394 0 
v -0.0205825 0.0180793 0 
v -0.0199884 0.0195704 0 
v -0.0201707 0.0193016 0 
v -0.0195422 0.0154684 0 
v -0.0201707 0.0162083 0 
v -0.0203228 0.0164953 0 
v -0.0205825 0.0174306 0 
v -0.0205299 0.01711 0 
v -0.020443 0.016797 0 
v -0.0206001 0.0177549 0 
v 0.00862197 -0.00398895 0 
v 0.0175925 0.0146045 0 
v -0.00051432 -0.00948607 0 
v 0.00051432 -0.00948607 0 
v 0.00814014 -0.00489776 0 
v 0.00756288 -0.00574916 0 
v 0.00351631 -0.00882528 0 
v 0.00444988 -0.00839336 0 
v 0.00153693 -0.00937485 0 
v 0.00254152 -0.00915372 0 
v -0.00153693 -0.00937485 0 
v -0.00351631 -0.00882528 0 
v -0.00254152 -0.00915372 0 
v -0.00756288 -0.00574916 0 
v -0.00689696 -0.00653314 0 
v -0.00900271 -0.00303336 0 
v -0.00862197 -0.00398895 0 
v 0.0188653 0.0148132 0 
v 0.0191601 0.0149495 0 
v 0.0185575 0.0147094 0 
v 0.00689696 -0.00653314 0 
v 0.00533128 -0.00786305 0 
v 0.00615017 -0.00724054 0 
v -0.00615017 -0.00724054 0 
v -0.00814014 -0.00489776 0 
v 0.0160714 0.015117 0 
v 0.00814014 0.00489776 0 
v 0.00756288 0.00574916 0 
v 0.0155769 0.015537 0 
v 0.00615017 0.00724054 0 
v 0.00533128 0.00786305 0 
v 0.00689696 0.00653314 0 
v 0.0182403 0.0146396 0 
v -0.00944431 -0.00102713 0 
v -0.0092779 -0.00204222 0 
v -0.00900271 0.00303336 0 
v -0.0092779 0.00204222 0 
v -0.00756288 0.00574916 0 
v -0.00814014 0.00489776 0 
v -0.00615017 0.00724054 0 
v -0.00689696 0.00653314 0 
v 0.00051432 0.00948607 0 
v -0.00051432 0.00948607 0 
v 0.0158128 0.0153136 0 
v 0.00444988 0.00839336 0 
v 0.0207373 0.0172757 0 
v 0.0207549 0.0176001 0 
v 0.0205979 0.0166422 0 
v 0.0206848 0.0169552 0 
v 0.0204776 0.0163404 0 
v 0.0194385 0.015117 0 
v 0.0196971 0.0153136 0 
v -0.00533128 -0.00786305 0 
v -0.00444988 -0.00839336 0 
v -0.00862197 0.00398895 0 
v 0.00153693 0.00937485 0 
v 0.0163497 0.0149495 0 
v 0.00944431 -0.00102713 0 
v 0.0095 4.07195e-18 0 
v 0.00254152 0.00915372 0 
v 0.00862197 0.00398895 0 
v 0.0158128 0.0198866 0 
v 0.0163497 0.0202506 0 
v 0.0201432 0.0157846 0 
v 0.0203255 0.0160534 0 
v 0.0179173 0.0146045 0 
v -0.0095 5.81707e-19 0 
v -0.00444988 0.00839336 0 
v -0.00533128 0.00786305 0 
v -0.00254152 0.00915372 0 
v -0.00351631 0.00882528 0 
v -0.00153693 0.00937485 0 
v 0.00944431 0.00102713 0 
v 0.00900271 -0.00303336 0 
v 0.0092779 -0.00204222 0 
v 0.0166445 0.0148132 0 
v 0.00351631 0.00882528 0 
v 0.0160714 0.0200831 0 
v 0.0169523 0.0204907 0 
v 0.0166445 0.020387 0 
v 0.0182403 0.0205606 0 
v 0.0092779 0.00204222 0 
v 0.00900271 0.00303336 0 
v 0.0175925 0.0205957 0 
v 0.0172696 0.0205606 0 
v 0.0185575 0.0204907 0 
v 0.0191601 0.0202506 0 
v 0.0188653 0.020387 0 
v 0.0196971 0.0198866 0 
v 0.0194385 0.0200831 0 
v 0.0207373 0.0179244 0 
v 0.0206848 0.018245 0 
v 0.0199329 0.015537 0 
v 0.0169523 0.0147094 0 
v 0.0172696 0.0146396 0 
v -0.00944431 0.00102713 0 
v 0.014912 0.018558 0 
v 0.0205979 0.018558 0 
v 0.0204776 0.0188597 0 
v 0.0148251 0.018245 0 
v 0.0150322 0.0188597 0 
v 0.0153666 0.0194156 0 
v 0.0155769 0.0196632 0 
v 0.0179173 0.0205957 0 
v 0.0151843 0.0160534 0 
v 0.0153666 0.0157846 0 
v 0.0151843 0.0191467 0 
v 0.0147725 0.0172757 0 
v 0.0148251 0.0169552 0 
v 0.0147725 0.0179244 0 
v 0.0201432 0.0194156 0 
v 0.0199329 0.0196632 0 
v 0.0203255 0.0191467 0 
v 0.014912 0.0166422 0 
v 0.0150322 0.0163404 0 
v 0.0147549 0.0176001 0 
v -0.01205 -0.01205 0 
vn -1 0 0 
vn -0.994138 0.108119 0 
vn -0.976621 0.21497 0 
vn -0.947653 0.319302 0 
vn -0.907575 0.419889 0 
vn -0.856857 0.515554 0 
vn -0.796093 0.605174 0 
vn -0.725995 0.687699 0 
vn -0.647386 0.762162 0 
vn -0.561187 0.827689 0 
vn -0.468408 0.883512 0 
vn -0.370138 0.928977 0 
vn -0.402182 0.91556 0 
vn -0.468408 0.883512 0 
vn -0.370138 0.928977 0 
vn -0.267528 0.96355 0 
vn -0.161782 0.986827 0 
vn -0.0541389 0.998533 0 
vn 0.0541389 0.998533 0 
vn 0.161782 0.986827 0 
vn 0.267528 0.96355 0 
vn 0.370138 0.928977 0 
vn 0.468408 0.883512 0 
vn 0.561187 0.827689 0 
vn 0.647386 0.762162 0 
vn 0.725995 0.687699 0 
vn 0.796093 0.605174 0 
vn 0.856857 0.515554 0 
vn 0.907575 0.419889 0 
vn 0.947653 0.319302 0 
vn 0.976621 0.21497 0 
vn 0.994138 0.108119 0 
vn 1 1.22465e-16 0 
vn 0.994138 -0.108119 0 
vn 0.976621 -0.21497 0 
vn 0.947653 -0.319302 0 
vn 0.907575 -0.419889 0 
vn 0.915632 -0.402018 0 
vn 0.947653 -0.319302 0 
vn 0.907575 -0.419889 0 
vn 0.856857 -0.515554 0 
vn 0.796093 -0.605174 0 
vn 0.725995 -0.687699 0 
vn 0.647386 -0.762162 0 
vn 0.561187 -0.827689 0 
vn 0.468408 -0.883512 0 
vn 0.370138 -0.928977 0 
vn 0.267528 -0.96355 0 
vn 0.161782 -0.986827 0 
vn 0.0541389 -0.998533 0 
vn -0.0541389 -0.998533 0 
vn -0.161782 -0.986827 0 
vn -0.267528 -0.96355 0 
vn -0.370138 -0.928977 0 
vn -0.468408 -0.883512 0 
vn -0.402182 -0.91556 0 
vn -0.370138 -0.928977 0 
vn -0.468408 -0.883512 0 
vn -0.561187 -0.827689 0 
vn -0.647386 -0.762162 0 
vn -0.725995 -0.687699 0 
vn -0.796093 -0.605174 0 
vn -0.856857 -0.515554 0 
vn -0.907575 -0.419889 0 
vn -0.947653 -0.319302 0 
vn -0.915632 -0.402018 0 
vn -0.907575 -0.419889 0 
vn -0.947653 -0.319302 0 
vn -0.976621 -0.21497 0 
vn -0.994138 -0.108119 0 
vn 0 0 1 
vn 0 0 -1 
vn 0.994138 0.108119 0 
vn 1 2.44929e-16 0 
vn 0.976621 0.21497 0 
vn 0.994138 0.108119 0 
vn 0.947653 0.319302 0 
vn 0.976621 0.21497 0 
vn 0.907575 0.419889 0 
vn 0.947653 0.319302 0 
vn 0.856857 0.515554 0 
vn 0.907575 0.419889 0 
vn 0.796093 0.605174 0 
vn 0.856857 0.515554 0 
vn 0.725995 0.687699 0 
vn 0.796093 0.605174 0 
vn 0.647386 0.762162 0 
vn 0.725995 0.687699 0 
vn 0.561187 0.827689 0 
vn 0.647386 0.762162 0 
vn 0.468408 0.883512 0 
vn 0.561187 0.827689 0 
vn 0.370138 0.928977 0 
vn 0.468408 0.883512 0 
vn 0.267528 0.96355 0 
vn 0.370138 0.928977 0 
vn 0.161782 0.986827 0 
vn 0.267528 0.96355 0 
vn 0.0541389 0.998533 0 
vn 0.161782 0.986827 0 
vn -0.0541389 0.998533 0 
vn 0.0541389 0.998533 0 
vn -0.161782 0.986827 0 
vn -0.0541389 0.998533 0 
vn -0.267528 0.96355 0 
vn -0.161782 0.986827 0 
vn -0.370138 0.928977 0 
vn -0.267528 0.96355 0 
vn -0.468408 0.883512 0 
vn -0.370138 0.928977 0 
vn -0.561187 0.827689 0 
vn -0.468408 0.883512 0 
vn -0.647386 0.762162 0 
vn -0.561187 0.827689 0 
vn -0.725995 0.687699 0 
vn -0.647386 0.762162 0 
vn -0.796093 0.605174 0 
vn -0.725995 0.687699 0 
vn -0.856857 0.515554 0 
vn -0.796093 0.605174 0 
vn -0.907575 0.419889 0 
vn -0.856857 0.515554 0 
vn -0.947653 0.319302 0 
vn -0.907575 0.419889 0 
vn -0.976621 0.21497 0 
vn -0.947653 0.319302 0 
vn -0.994138 0.108119 0 
vn -0.976621 0.21497 0 
vn -1 -1.22465e-16 0 
vn -0.994138 0.108119 0 
vn -0.994138 -0.108119 0 
vn -1 -1.22465e-16 0 
vn -0.976621 -0.21497 0 
vn -0.994138 -0.108119 0 
vn -0.947653 -0.319302 0 
vn -0.976621 -0.21497 0 
vn -0.907575 -0.419889 0 
vn -0.947653 -0.319302 0 
vn -0.856857 -0.515554 0 
vn -0.907575 -0.419889 0 
vn -0.796093 -0.605174 0 
vn -0.856857 -0.515554 0 
vn -0.725995 -0.687699 0 
vn -0.796093 -0.605174 0 
vn -0.647386 -0.762162 0 
vn -0.725995 -0.687699 0 
vn -0.561187 -0.827689 0 
vn -0.647386 -0.762162 0 
vn -0.468408 -0.883512 0 
vn -0.561187 -0.827689 0 
vn -0.370138 -0.928977 0 
vn -0.468408 -0.883512 0 
vn -0.267528 -0.96355 0 
vn -0.370138 -0.928977 0 
vn -0.161782 -0.986827 0 
vn -0.267528 -0.96355 0 
vn -0.0541389 -0.998533 0 
vn -0.161782 -0.986827 0 
vn 0.0541389 -0.998533 0 
vn -0.0541389 -0.998533 0 
vn 0.161782 -0.986827 0 
vn 0.0541389 -0.998533 0 
vn 0.267528 -0.96355 0 
vn 0.161782 -0.986827 0 
vn 0.370138 -0.928977 0 
vn 0.267528 -0.96355 0 
vn 0.468408 -0.883512 0 
vn 0.370138 -0.928977 0 
vn 0.561187 -0.827689 0 
vn 0.468408 -0.883512 0 
vn 0.647386 -0.762162 0 
vn 0.561187 -0.827689 0 
vn 0.725995 -0.687699 0 
vn 0.647386 -0.762162 0 
vn 0.796093 -0.605174 0 
vn 0.725995 -0.687699 0 
vn 0.856857 -0.515554 0 
vn 0.796093 -0.605174 0 
vn 0.907575 -0.419889 0 
vn 0.856857 -0.515554 0 
vn 0.947653 -0.319302 0 
vn 0.907575 -0.419889 0 
vn 0.976621 -0.21497 0 
vn 0.947653 -0.319302 0 
vn 0.994138 -0.108119 0 
vn 0.976621 -0.21497 0 
vn 0.994138 0.108119 0 
vn 1 2.44929e-16 0 
vn 0.976621 0.21497 0 
vn 0.994138 0.108119 0 
vn 0.947653 0.319302 0 
vn 0.976621 0.21497 0 
vn 0.907575 0.419889 0 
vn 0.947653 0.319302 0 
vn 0.856857 0.515554 0 
vn 0.907575 0.419889 0 
vn 0.796093 0.605174 0 
vn 0.856857 0.515554 0 
vn 0.725995 0.687699 0 
vn 0.796093 0.605174 0 
vn 0.647386 0.762162 0 
vn 0.725995 0.687699 0 
vn 0.561187 0.827689 0 
vn 0.647386 0.762162 0 
vn 0.468408 0.883512 0 
vn 0.561187 0.827689 0 
vn 0.370138 0.928977 0 
vn 0.468408 0.883512 0 
vn 0.267528 0.96355 0 
vn 0.370138 0.928977 0 
vn 0.161782 0.986827 0 
vn 0.267528 0.96355 0 
vn 0.0541389 0.998533 0 
vn 0.161782 0.986827 0 
vn -0.0541389 0.998533 0 
vn 0.0541389 0.998533 0 
vn -0.161782 0.986827 0 
vn -0.0541389 0.998533 0 
vn -0.267528 0.96355 0 
vn -0.161782 0.986827 0 
vn -0.370138 0.928977 0 
vn -0.267528 0.96355 0 
vn -0.468408 0.883512 0 
vn -0.370138 0.928977 0 
vn -0.561187 0.827689 0 
vn -0.468408 0.883512 0 
vn -0.647386 0.762162 0 
vn -0.561187 0.827689 0 
vn -0.725995 0.687699 0 
vn -0.647386 0.762162 0 
vn -0.796093 0.605174 0 
vn -0.725995 0.687699 0 
vn -0.856857 0.515554 0 
vn -0.796093 0.605174 0 
vn -0.907575 0.419889 0 
vn -0.856857 0.515554 0 
vn -0.947653 0.319302 0 
vn -0.907575 0.419889 0 
vn -0.976621 0.21497 0 
vn -0.947653 0.319302 0 
vn -0.994138 0.108119 0 
vn -0.976621 0.21497 0 
vn -1 -1.22465e-16 0 
vn -0.994138 0.108119 0 
vn -0.994138 -0.108119 0 
vn -1 -1.22465e-16 0 
vn -0.976621 -0.21497 0 
vn -0.994138 -0.108119 0 
vn -0.947653 -0.319302 0 
vn -0.976621 -0.21497 0 
vn -0.907575 -0.419889 0 
vn -0.947653 -0.319302 0 
vn -0.856857 -0.515554 0 
vn -0.907575 -0.419889 0 
vn -0.796093 -0.605174 0 
vn -0.856857 -0.515554 0 
vn -0.725995 -0.687699 0 
vn -0.796093 -0.605174 0 
vn -0.647386 -0.762162 0 
vn -0.725995 -0.687699 0 
vn -0.561187 -0.827689 0 
vn -0.647386 -0.762162 0 
vn -0.468408 -0.883512 0 
vn -0.561187 -0.827689 0 
vn -0.370138 -0.928977 0 
vn -0.468408 -0.883512 0 
vn -0.267528 -0.96355 0 
vn -0.370138 -0.928977 0 
vn -0.161782 -0.986827 0 
vn -0.267528 -0.96355 0 
vn -0.0541389 -0.998533 0 
vn -0.161782 -0.986827 0 
vn 0.0541389 -0.998533 0 
vn -0.0541389 -0.998533 0 
vn 0.161782 -0.986827 0 
vn 0.0541389 -0.998533 0 
vn 0.267528 -0.96355 0 
vn 0.161782 -0.986827 0 
vn 0.370138 -0.928977 0 
vn 0.267528 -0.96355 0 
vn 0.468408 -0.883512 0 
vn 0.370138 -0.928977 0 
vn 0.561187 -0.827689 0 
vn 0.468408 -0.883512 0 
vn 0.647386 -0.762162 0 
vn 0.561187 -0.827689 0 
vn 0.725995 -0.687699 0 
vn 0.647386 -0.762162 0 
vn 0.796093 -0.605174 0 
vn 0.725995 -0.687699 0 
vn 0.856857 -0.515554 0 
vn 0.796093 -0.605174 0 
vn 0.907575 -0.419889 0 
vn 0.856857 -0.515554 0 
vn 0.947653 -0.319302 0 
vn 0.907575 -0.419889 0 
vn 0.976621 -0.21497 0 
vn 0.947653 -0.319302 0 
vn 0.994138 -0.108119 0 
vn 0.976621 -0.21497 0 
vn 0.994138 0.108119 0 
vn 1 2.44929e-16 0 
vn 0.976621 0.21497 0 
vn 0.994138 0.108119 0 
vn 0.947653 0.319302 0 
vn 0.976621 0.21497 0 
vn 0.907575 0.419889 0 
vn 0.947653 0.319302 0 
vn 0.856857 0.515554 0 
vn 0.907575 0.419889 0 
vn 0.796093 0.605174 0 
vn 0.856857 0.515554 0 
vn 0.725995 0.687699 0 
vn 0.796093 0.605174 0 
vn 0.647386 0.762162 0 
vn 0.725995 0.687699 0 
vn 0.561187 0.827689 0 
vn 0.647386 0.762162 0 
vn 0.468408 0.883512 0 
vn 0.561187 0.827689 0 
vn 0.370138 0.928977 0 
vn 0.468408 0.883512 0 
vn 0.267528 0.96355 0 
vn 0.370138 0.928977 0 
vn 0.161782 0.986827 0 
vn 0.267528 0.96355 0 
vn 0.0541389 0.998533 0 
vn 0.161782 0.986827 0 
vn -0.0541389 0.998533 0 
vn 0.0541389 0.998533 0 
vn -0.161782 0.986827 0 
vn -0.0541389 0.998533 0 
vn -0.267528 0.96355 0 
vn -0.161782 0.986827 0 
vn -0.370138 0.928977 0 
vn -0.267528 0.96355 0 
vn -0.468408 0.883512 0 
vn -0.370138 0.928977 0 
vn -0.561187 0.827689 0 
vn -0.468408 0.883512 0 
vn -0.647386 0.762162 0 
vn -0.561187 0.827689 0 
vn -0.725995 0.687699 0 
vn -0.647386 0.762162 0 
vn -0.796093 0.605174 0 
vn -0.725995 0.687699 0 
vn -0.856857 0.515554 0 
vn -0.796093 0.605174 0 
vn -0.907575 0.419889 0 
vn -0.856857 0.515554 0 
vn -0.947653 0.319302 0 
vn -0.907575 0.419889 0 
vn -0.976621 0.21497 0 
vn -0.947653 0.319302 0 
vn -0.994138 0.108119 0 
vn -0.976621 0.21497 0 
vn -1 -1.22465e-16 0 
vn -0.994138 0.108119 0 
vn -0.994138 -0.108119 0 
vn -1 -1.22465e-16 0 
vn -0.976621 -0.21497 0 
vn -0.994138 -0.108119 0 
vn -0.947653 -0.319302 0 
vn -0.976621 -0.21497 0 
vn -0.907575 -0.419889 0 
vn -0.947653 -0.319302 0 
vn -0.856857 -0.515554 0 
vn -0.907575 -0.419889 0 
vn -0.796093 -0.605174 0 
vn -0.856857 -0.515554 0 
vn -0.725995 -0.687699 0 
vn -0.796093 -0.605174 0 
vn -0.647386 -0.762162 0 
vn -0.725995 -0.687699 0 
vn -0.561187 -0.827689 0 
vn -0.647386 -0.762162 0 
vn -0.468408 -0.883512 0 
vn -0.561187 -0.827689 0 
vn -0.370138 -0.928977 0 
vn -0.468408 -0.883512 0 
vn -0.267528 -0.96355 0 
vn -0.370138 -0.928977 0 
vn -0.161782 -0.986827 0 
vn -0.267528 -0.96355 0 
vn -0.0541389 -0.998533 0 
vn -0.161782 -0.986827 0 
vn 0.0541389 -0.998533 0 
vn -0.0541389 -0.998533 0 
vn 0.161782 -0.986827 0 
vn 0.0541389 -0.998533 0 
vn 0.267528 -0.96355 0 
vn 0.161782 -0.986827 0 
vn 0.370138 -0.928977 0 
vn 0.267528 -0.96355 0 
vn 0.468408 -0.883512 0 
vn 0.370138 -0.928977 0 
vn 0.561187 -0.827689 0 
vn 0.468408 -0.883512 0 
vn 0.647386 -0.762162 0 
vn 0.561187 -0.827689 0 
vn 0.725995 -0.687699 0 
vn 0.647386 -0.762162 0 
vn 0.796093 -0.605174 0 
vn 0.725995 -0.687699 0 
vn 0.856857 -0.515554 0 
vn 0.796093 -0.605174 0 
vn 0.907575 -0.419889 0 
vn 0.856857 -0.515554 0 
vn 0.947653 -0.319302 0 
vn 0.907575 -0.419889 0 
vn 0.976621 -0.21497 0 
vn 0.947653 -0.319302 0 
vn 0.994138 -0.108119 0 
vn 0.976621 -0.21497 0 
vn 0.994138 0.108119 0 
vn 1 2.44929e-16 0 
vn 0.976621 0.21497 0 
vn 0.994138 0.108119 0 
vn 0.947653 0.319302 0 
vn 0.976621 0.21497 0 
vn 0.907575 0.419889 0 
vn 0.947653 0.319302 0 
vn 0.856857 0.515554 0 
vn 0.907575 0.419889 0 
vn 0.796093 0.605174 0 
vn 0.856857 0.515554 0 
vn 0.725995 0.687699 0 
vn 0.796093 0.605174 0 
vn 0.647386 0.762162 0 
vn 0.725995 0.687699 0 
vn 0.561187 0.827689 0 
vn 0.647386 0.762162 0 
vn 0.468408 0.883512 0 
vn 0.561187 0.827689 0 
vn 0.370138 0.928977 0 
vn 0.468408 0.883512 0 
vn 0.267528 0.96355 0 
vn 0.370138 0.928977 0 
vn 0.161782 0.986827 0 
vn 0.267528 0.96355 0 
vn 0.0541389 0.998533 0 
vn 0.161782 0.986827 0 
vn -0.0541389 0.998533 0 
vn 0.0541389 0.998533 0 
vn -0.161782 0.986827 0 
vn -0.0541389 0.998533 0 
vn -0.267528 0.96355 0 
vn -0.161782 0.986827 0 
vn -0.370138 0.928977 0 
vn -0.267528 0.96355 0 
vn -0.468408 0.883512 0 
vn -0.370138 0.928977 0 
vn -0.561187 0.827689 0 
vn -0.468408 0.883512 0 
vn -0.647386 0.762162 0 
vn -0.561187 0.827689 0 
vn -0.725995 0.687699 0 
vn -0.647386 0.762162 0 
vn -0.796093 0.605174 0 
vn -0.725995 0.687699 0 
vn -0.856857 0.515554 0 
vn -0.796093 0.605174 0 
vn -0.907575 0.419889 0 
vn -0.856857 0.515554 0 
vn -0.947653 0.319302 0 
vn -0.907575 0.419889 0 
vn -0.976621 0.21497 0 
vn -0.947653 0.319302 0 
vn -0.994138 0.108119 0 
vn -0.976621 0.21497 0 
vn -1 -1.22465e-16 0 
vn -0.994138 0.108119 0 
vn -0.994138 -0.108119 0 
vn -1 -1.22465e-16 0 
vn -0.976621 -0.21497 0 
vn -0.994138 -0.108119 0 
vn -0.947653 -0.319302 0 
vn -0.976621 -0.21497 0 
vn -0.907575 -0.419889 0 
vn -0.947653 -0.319302 0 
vn -0.856857 -0.515554 0 
vn -0.907575 -0.419889 0 
vn -0.796093 -0.605174 0 
vn -0.856857 -0.515554 0 
vn -0.725995 -0.687699 0 
vn -0.796093 -0.605174 0 
vn -0.647386 -0.762162 0 
vn -0.725995 -0.687699 0 
vn -0.561187 -0.827689 0 
vn -0.647386 -0.762162 0 
vn -0.468408 -0.883512 0 
vn -0.561187 -0.827689 0 
vn -0.370138 -0.928977 0 
vn -0.468408 -0.883512 0 
vn -0.267528 -0.96355 0 
vn -0.370138 -0.928977 0 
vn -0.161782 -0.986827 0 
vn -0.267528 -0.96355 0 
vn -0.0541389 -0.998533 0 
vn -0.161782 -0.986827 0 
vn 0.0541389 -0.998533 0 
vn -0.0541389 -0.998533 0 
vn 0.161782 -0.986827 0 
vn 0.0541389 -0.998533 0 
vn 0.267528 -0.96355 0 
vn 0.161782 -0.986827 0 
vn 0.370138 -0.928977 0 
vn 0.267528 -0.96355 0 
vn 0.468408 -0.883512 0 
vn 0.370138 -0.928977 0 
vn 0.561187 -0.827689 0 
vn 0.468408 -0.883512 0 
vn 0.647386 -0.762162 0 
vn 0.561187 -0.827689 0 
vn 0.725995 -0.687699 0 
vn 0.647386 -0.762162 0 
vn 0.796093 -0.605174 0 
vn 0.725995 -0.687699 0 
vn 0.856857 -0.515554 0 
vn 0.796093 -0.605174 0 
vn 0.907575 -0.419889 0 
vn 0.856857 -0.515554 0 
vn 0.947653 -0.319302 0 
vn 0.907575 -0.419889 0 
vn 0.976621 -0.21497 0 
vn 0.947653 -0.319302 0 
vn 0.994138 -0.108119 0 
vn 0.976621 -0.21497 0 
vn 0.994138 0.108119 0 
vn 1 2.44929e-16 0 
vn 0.976621 0.21497 0 
vn 0.994138 0.108119 0 
vn 0.947653 0.319302 0 
vn 0.976621 0.21497 0 
vn 0.907575 0.419889 0 
vn 0.947653 0.319302 0 
vn 0.856857 0.515554 0 
vn 0.907575 0.419889 0 
vn 0.796093 0.605174 0 
vn 0.856857 0.515554 0 
vn 0.725995 0.687699 0 
vn 0.796093 0.605174 0 
vn 0.647386 0.762162 0 
vn 0.725995 0.687699 0 
vn 0.561187 0.827689 0 
vn 0.647386 0.762162 0 
vn 0.468408 0.883512 0 
vn 0.561187 0.827689 0 
vn 0.370138 0.928977 0 
vn 0.468408 0.883512 0 
vn 0.267528 0.96355 0 
vn 0.370138 0.928977 0 
vn 0.161782 0.986827 0 
vn 0.267528 0.96355 0 
vn 0.0541389 0.998533 0 
vn 0.161782 0.986827 0 
vn -0.0541389 0.998533 0 
vn 0.0541389 0.998533 0 
vn -0.161782 0.986827 0 
vn -0.0541389 0.998533 0 
vn -0.267528 0.96355 0 
vn -0.161782 0.986827 0 
vn -0.370138 0.928977 0 
vn -0.267528 0.96355 0 
vn -0.468408 0.883512 0 
vn -0.370138 0.928977 0 
vn -0.561187 0.827689 0 
vn -0.468408 0.883512 0 
vn -0.647386 0.762162 0 
vn -0.561187 0.827689 0 
vn -0.725995 0.687699 0 
vn -0.647386 0.762162 0 
vn -0.796093 0.605174 0 
vn -0.725995 0.687699 0 
vn -0.856857 0.515554 0 
vn -0.796093 0.605174 0 
vn -0.907575 0.419889 0 
vn -0.856857 0.515554 0 
vn -0.947653 0.319302 0 
vn -0.907575 0.419889 0 
vn -0.976621 0.21497 0 
vn -0.947653 0.319302 0 
vn -0.994138 0.108119 0 
vn -0.976621 0.21497 0 
vn -1 -1.22465e-16 0 
vn -0.994138 0.108119 0 
vn -0.994138 -0.108119 0 
vn -1 -1.22465e-16 0 
vn -0.976621 -0.21497 0 
vn -0.994138 -0.108119 0 
vn -0.947653 -0.319302 0 
vn -0.976621 -0.21497 0 
vn -0.907575 -0.419889 0 
vn -0.947653 -0.319302 0 
vn -0.856857 -0.515554 0 
vn -0.907575 -0.419889 0 
vn -0.796093 -0.605174 0 
vn -0.856857 -0.515554 0 
vn -0.725995 -0.687699 0 
vn -0.796093 -0.605174 0 
vn -0.647386 -0.762162 0 
vn -0.725995 -0.687699 0 
vn -0.561187 -0.827689 0 
vn -0.647386 -0.762162 0 
vn -0.468408 -0.883512 0 
vn -0.561187 -0.827689 0 
vn -0.370138 -0.928977 0 
vn -0.468408 -0.883512 0 
vn -0.267528 -0.96355 0 
vn -0.370138 -0.928977 0 
vn -0.161782 -0.986827 0 
vn -0.267528 -0.96355 0 
vn -0.0541389 -0.998533 0 
vn -0.161782 -0.986827 0 
vn 0.0541389 -0.998533 0 
vn -0.0541389 -0.998533 0 
vn 0.161782 -0.986827 0 
vn 0.0541389 -0.998533 0 
vn 0.267528 -0.96355 0 
vn 0.161782 -0.986827 0 
vn 0.370138 -0.928977 0 
vn 0.267528 -0.96355 0 
vn 0.468408 -0.883512 0 
vn 0.370138 -0.928977 0 
vn 0.561187 -0.827689 0 
vn 0.468408 -0.883512 0 
vn 0.647386 -0.762162 0 
vn 0.561187 -0.827689 0 
vn 0.725995 -0.687699 0 
vn 0.647386 -0.762162 0 
vn 0.796093 -0.605174 0 
vn 0.725995 -0.687699 0 
vn 0.856857 -0.515554 0 
vn 0.796093 -0.605174 0 
vn 0.907575 -0.419889 0 
vn 0.856857 -0.515554 0 
vn 0.947653 -0.319302 0 
vn 0.907575 -0.419889 0 
vn 0.976621 -0.21497 0 
vn 0.947653 -0.319302 0 
vn 0.994138 -0.108119 0 
vn 0.976621 -0.21497 0 
usemtl 0.615686_0.811765_0.929412_0.000000_0.000000
o mesh0
f 1//1 2//1 3//2 
f 4//2 3//2 5//3 
f 6//3 5//3 7//4 
f 8//4 7//4 9//5 
f 10//5 9//5 11//6 
f 12//6 11//6 13//7 
f 14//7 13//7 15//8 
f 16//8 15//8 17//9 
f 18//9 17//9 19//10 
f 20//10 19//10 21//11 
f 22//12 23//13 24//13 
f 21//11 24//13 23//13 
f 23//13 25//14 21//11 
f 22//12 26//15 27//16 
f 28//16 27//16 29//17 
f 30//17 29//17 31//18 
f 32//18 31//18 33//19 
f 34//19 33//19 35//20 
f 36//20 35//20 37//21 
f 38//21 37//21 39//22 
f 40//22 39//22 41//23 
f 42//23 41//23 43//24 
f 44//24 43//24 45//25 
f 46//25 45//25 47//26 
f 48//26 47//26 49//27 
f 50//27 49//27 51//28 
f 52//28 51//28 53//29 
f 54//29 53//29 55//30 
f 56//30 55//30 57//31 
f 58//31 57//31 59//32 
f 60//32 59//32 61//33 
f 62//33 61//33 63//34 
f 64//34 63//34 65//35 
f 66//35 65//35 67//36 
f 68//37 69//38 70//38 
f 67//36 70//38 69//38 
f 69//38 71//39 67//36 
f 68//37 72//40 73//41 
f 74//41 73//41 75//42 
f 76//42 75//42 77//43 
f 78//43 77//43 79//44 
f 80//44 79//44 81//45 
f 82//45 81//45 83//46 
f 84//46 83//46 85//47 
f 86//47 85//47 87//48 
f 88//48 87//48 89//49 
f 90//49 89//49 91//50 
f 92//50 91//50 93//51 
f 94//51 93//51 95//52 
f 96//52 95//52 97//53 
f 98//53 97//53 99//54 
f 100//55 101//56 102//56 
f 99//54 102//56 101//56 
f 101//56 103//57 99//54 
f 100//55 104//58 105//59 
f 106//59 105//59 107//60 
f 108//60 107//60 109//61 
f 110//61 109//61 111//62 
f 112//62 111//62 113//63 
f 114//63 113//63 115//64 
f 116//65 117//66 118//66 
f 115//64 118//66 117//66 
f 117//66 119//67 115//64 
f 116//65 120//68 121//69 
f 122//69 121//69 123//70 
f 124//70 123//70 2//1 
f 2//1 1//1 124//70 
f 123//70 124//70 122//69 
f 121//69 122//69 116//65 
f 118//66 120//68 116//65 
f 115//64 119//67 114//63 
f 113//63 114//63 112//62 
f 111//62 112//62 110//61 
f 109//61 110//61 108//60 
f 107//60 108//60 106//59 
f 105//59 106//59 100//55 
f 102//56 104//58 100//55 
f 99//54 103//57 98//53 
f 97//53 98//53 96//52 
f 95//52 96//52 94//51 
f 93//51 94//51 92//50 
f 91//50 92//50 90//49 
f 89//49 90//49 88//48 
f 87//48 88//48 86//47 
f 85//47 86//47 84//46 
f 83//46 84//46 82//45 
f 81//45 82//45 80//44 
f 79//44 80//44 78//43 
f 77//43 78//43 76//42 
f 75//42 76//42 74//41 
f 73//41 74//41 68//37 
f 70//38 72//40 68//37 
f 67//36 71//39 66//35 
f 65//35 66//35 64//34 
f 63//34 64//34 62//33 
f 61//33 62//33 60//32 
f 59//32 60//32 58//31 
f 57//31 58//31 56//30 
f 55//30 56//30 54//29 
f 53//29 54//29 52//28 
f 51//28 52//28 50//27 
f 49//27 50//27 48//26 
f 47//26 48//26 46//25 
f 45//25 46//25 44//24 
f 43//24 44//24 42//23 
f 41//23 42//23 40//22 
f 39//22 40//22 38//21 
f 37//21 38//21 36//20 
f 35//20 36//20 34//19 
f 33//19 34//19 32//18 
f 31//18 32//18 30//17 
f 29//17 30//17 28//16 
f 27//16 28//16 22//12 
f 24//13 26//15 22//12 
f 21//11 25//14 20//10 
f 19//10 20//10 18//9 
f 17//9 18//9 16//8 
f 15//8 16//8 14//7 
f 13//7 14//7 12//6 
f 11//6 12//6 10//5 
f 9//5 10//5 8//4 
f 7//4 8//4 6//3 
f 5//3 6//3 4//2 
f 3//2 4//2 1//1 
o mesh1
f 24//71 125//71 126//71 
f 125//71 24//71 21//71 
f 24//71 127//71 128//71 
f 126//71 129//71 24//71 
f 21//71 130//71 131//71 
f 130//71 21//71 19//71 
f 415//71 132//71 133//71 
f 24//71 134//71 127//71 
f 21//71 131//71 125//71 
f 19//71 135//71 136//71 
f 19//71 17//71 137//71 
f 415//71 138//71 139//71 
f 415//71 140//71 132//71 
f 128//71 141//71 24//71 
f 19//71 136//71 130//71 
f 17//71 142//71 137//71 
f 17//71 143//71 144//71 
f 17//71 15//71 145//71 
f 15//71 13//71 146//71 
f 13//71 147//71 148//71 
f 149//71 150//71 13//71 
f 139//71 151//71 415//71 
f 415//71 152//71 140//71 
f 415//71 153//71 154//71 
f 129//71 134//71 24//71 
f 144//71 142//71 17//71 
f 145//71 155//71 17//71 
f 148//71 146//71 13//71 
f 13//71 11//71 149//71 
f 156//71 157//71 2//71 
f 415//71 158//71 138//71 
f 154//71 152//71 415//71 
f 415//71 159//71 160//71 
f 24//71 161//71 162//71 
f 19//71 163//71 135//71 
f 155//71 143//71 17//71 
f 15//71 164//71 165//71 
f 150//71 147//71 13//71 
f 166//71 167//71 9//71 
f 168//71 166//71 7//71 
f 157//71 169//71 3//71 
f 2//71 123//71 156//71 
f 170//71 156//71 121//71 
f 171//71 170//71 120//71 
f 133//71 158//71 415//71 
f 160//71 172//71 415//71 
f 24//71 173//71 159//71 
f 162//71 174//71 24//71 
f 137//71 163//71 19//71 
f 146//71 164//71 15//71 
f 11//71 175//71 176//71 
f 177//71 175//71 11//71 
f 7//71 5//71 168//71 
f 169//71 168//71 5//71 
f 123//71 121//71 156//71 
f 120//71 118//71 171//71 
f 118//71 415//71 178//71 
f 151//71 179//71 415//71 
f 159//71 415//71 24//71 
f 141//71 161//71 24//71 
f 15//71 180//71 181//71 
f 176//71 149//71 11//71 
f 9//71 167//71 177//71 
f 5//71 3//71 169//71 
f 121//71 120//71 170//71 
f 178//71 182//71 118//71 
f 172//71 153//71 415//71 
f 181//71 145//71 15//71 
f 11//71 9//71 177//71 
f 3//71 2//71 157//71 
f 179//71 178//71 415//71 
f 165//71 180//71 15//71 
f 182//71 171//71 118//71 
f 9//71 7//71 166//71 
f 415//71 183//71 184//71 
f 415//71 185//71 186//71 
f 184//71 187//71 415//71 
f 415//71 188//71 189//71 
f 118//71 190//71 191//71 
f 192//71 193//71 105//71 
f 194//71 195//71 104//71 
f 102//71 196//71 197//71 
f 415//71 198//71 185//71 
f 189//71 183//71 415//71 
f 415//71 199//71 200//71 
f 118//71 201//71 190//71 
f 118//71 202//71 203//71 
f 204//71 118//71 115//71 
f 205//71 115//71 113//71 
f 113//71 206//71 207//71 
f 206//71 113//71 111//71 
f 105//71 104//71 192//71 
f 104//71 102//71 194//71 
f 102//71 208//71 196//71 
f 186//71 209//71 415//71 
f 200//71 188//71 415//71 
f 118//71 210//71 211//71 
f 203//71 201//71 118//71 
f 115//71 205//71 204//71 
f 207//71 212//71 113//71 
f 111//71 213//71 214//71 
f 195//71 192//71 104//71 
f 102//71 215//71 208//71 
f 102//71 216//71 217//71 
f 102//71 218//71 219//71 
f 187//71 198//71 415//71 
f 118//71 220//71 210//71 
f 204//71 202//71 118//71 
f 111//71 214//71 206//71 
f 105//71 221//71 222//71 
f 193//71 223//71 105//71 
f 217//71 215//71 102//71 
f 219//71 224//71 102//71 
f 415//71 225//71 218//71 
f 415//71 226//71 227//71 
f 415//71 211//71 199//71 
f 118//71 228//71 220//71 
f 113//71 212//71 205//71 
f 111//71 229//71 230//71 
f 111//71 109//71 231//71 
f 109//71 232//71 233//71 
f 109//71 107//71 234//71 
f 107//71 235//71 236//71 
f 222//71 107//71 105//71 
f 197//71 194//71 102//71 
f 218//71 102//71 415//71 
f 227//71 237//71 415//71 
f 211//71 415//71 118//71 
f 230//71 213//71 111//71 
f 109//71 238//71 231//71 
f 109//71 239//71 232//71 
f 236//71 234//71 107//71 
f 222//71 240//71 107//71 
f 224//71 216//71 102//71 
f 209//71 226//71 415//71 
f 231//71 229//71 111//71 
f 234//71 239//71 109//71 
f 223//71 221//71 105//71 
f 191//71 228//71 118//71 
f 240//71 235//71 107//71 
f 233//71 238//71 109//71 
f 70//71 241//71 242//71 
f 70//71 243//71 244//71 
f 415//71 245//71 246//71 
f 415//71 102//71 247//71 
f 81//71 79//71 248//71 
f 244//71 241//71 70//71 
f 70//71 249//71 250//71 
f 246//71 251//71 415//71 
f 247//71 252//71 415//71 
f 253//71 85//71 83//71 
f 79//71 254//71 248//71 
f 79//71 255//71 256//71 
f 79//71 77//71 257//71 
f 250//71 243//71 70//71 
f 70//71 258//71 259//71 
f 415//71 260//71 258//71 
f 415//71 261//71 262//71 
f 415//71 263//71 264//71 
f 252//71 245//71 415//71 
f 265//71 87//71 85//71 
f 83//71 266//71 253//71 
f 267//71 83//71 81//71 
f 256//71 254//71 79//71 
f 77//71 268//71 257//71 
f 70//71 269//71 249//71 
f 258//71 70//71 415//71 
f 415//71 270//71 261//71 
f 415//71 271//71 272//71 
f 251//71 263//71 415//71 
f 102//71 273//71 274//71 
f 275//71 93//71 91//71 
f 276//71 91//71 89//71 
f 277//71 89//71 87//71 
f 253//71 278//71 85//71 
f 81//71 279//71 280//71 
f 248//71 281//71 81//71 
f 257//71 282//71 79//71 
f 77//71 75//71 283//71 
f 75//71 284//71 285//71 
f 70//71 286//71 287//71 
f 259//71 269//71 70//71 
f 272//71 270//71 415//71 
f 274//71 247//71 102//71 
f 273//71 99//71 97//71 
f 288//71 95//71 93//71 
f 89//71 277//71 276//71 
f 85//71 278//71 265//71 
f 81//71 280//71 267//71 
f 282//71 255//71 79//71 
f 77//71 289//71 290//71 
f 285//71 283//71 75//71 
f 291//71 292//71 75//71 
f 73//71 293//71 294//71 
f 242//71 286//71 70//71 
f 264//71 271//71 415//71 
f 273//71 102//71 99//71 
f 288//71 97//71 95//71 
f 87//71 265//71 277//71 
f 281//71 279//71 81//71 
f 77//71 295//71 289//71 
f 75//71 292//71 284//71 
f 294//71 291//71 73//71 
f 296//71 293//71 73//71 
f 297//71 296//71 72//71 
f 262//71 260//71 415//71 
f 93//71 275//71 288//71 
f 267//71 266//71 83//71 
f 283//71 295//71 77//71 
f 73//71 72//71 296//71 
f 70//71 298//71 297//71 
f 97//71 288//71 273//71 
f 290//71 268//71 77//71 
f 72//71 70//71 297//71 
f 91//71 276//71 275//71 
f 287//71 298//71 70//71 
f 415//71 299//71 300//71 
f 415//71 70//71 301//71 
f 415//71 302//71 299//71 
f 70//71 303//71 301//71 
f 70//71 304//71 305//71 
f 301//71 302//71 415//71 
f 70//71 306//71 307//71 
f 70//71 308//71 304//71 
f 70//71 67//71 309//71 
f 310//71 311//71 27//71 
f 312//71 313//71 314//71 
f 24//71 315//71 316//71 
f 24//71 317//71 318//71 
f 307//71 303//71 70//71 
f 70//71 319//71 320//71 
f 70//71 321//71 322//71 
f 309//71 308//71 70//71 
f 47//71 45//71 323//71 
f 27//71 26//71 310//71 
f 24//71 324//71 325//71 
f 24//71 326//71 312//71 
f 24//71 327//71 328//71 
f 318//71 315//71 24//71 
f 24//71 329//71 330//71 
f 415//71 331//71 329//71 
f 415//71 332//71 333//71 
f 415//71 334//71 335//71 
f 320//71 306//71 70//71 
f 305//71 321//71 70//71 
f 45//71 336//71 323//71 
f 45//71 337//71 338//71 
f 43//71 339//71 340//71 
f 341//71 342//71 43//71 
f 343//71 344//71 41//71 
f 325//71 310//71 24//71 
f 314//71 24//71 312//71 
f 316//71 327//71 24//71 
f 330//71 345//71 24//71 
f 415//71 346//71 331//71 
f 415//71 347//71 348//71 
f 415//71 349//71 332//71 
f 415//71 350//71 334//71 
f 415//71 351//71 352//71 
f 322//71 319//71 70//71 
f 65//71 353//71 309//71 
f 65//71 63//71 354//71 
f 61//71 355//71 356//71 
f 61//71 357//71 358//71 
f 338//71 336//71 45//71 
f 340//71 45//71 43//71 
f 43//71 41//71 341//71 
f 41//71 39//71 343//71 
f 359//71 360//71 39//71 
f 314//71 324//71 24//71 
f 345//71 317//71 24//71 
f 348//71 346//71 415//71 
f 335//71 349//71 415//71 
f 300//71 351//71 415//71 
f 354//71 353//71 65//71 
f 361//71 362//71 363//71 
f 364//71 365//71 366//71 
f 358//71 355//71 61//71 
f 367//71 61//71 59//71 
f 340//71 337//71 45//71 
f 344//71 341//71 41//71 
f 39//71 37//71 359//71 
f 311//71 368//71 31//71 
f 328//71 326//71 24//71 
f 333//71 347//71 415//71 
f 309//71 67//71 65//71 
f 61//71 369//71 354//71 
f 363//71 370//71 361//71 
f 371//71 365//71 370//71 
f 372//71 373//71 364//71 
f 61//71 374//71 357//71 
f 59//71 375//71 367//71 
f 43//71 376//71 339//71 
f 360//71 343//71 39//71 
f 368//71 377//71 33//71 
f 31//71 29//71 311//71 
f 329//71 24//71 415//71 
f 354//71 63//71 61//71 
f 378//71 379//71 362//71 
f 378//71 380//71 381//71 
f 370//71 363//71 371//71 
f 366//71 372//71 364//71 
f 367//71 374//71 61//71 
f 382//71 53//71 51//71 
f 51//71 383//71 384//71 
f 47//71 385//71 386//71 
f 342//71 376//71 43//71 
f 387//71 359//71 37//71 
f 377//71 387//71 35//71 
f 29//71 27//71 311//71 
f 352//71 350//71 415//71 
f 378//71 388//71 379//71 
f 378//71 389//71 390//71 
f 378//71 391//71 380//71 
f 378//71 312//71 392//71 
f 393//71 394//71 395//71 
f 393//71 396//71 397//71 
f 372//71 396//71 373//71 
f 396//71 393//71 398//71 
f 369//71 399//71 400//71 
f 356//71 369//71 61//71 
f 375//71 59//71 57//71 
f 401//71 57//71 55//71 
f 402//71 55//71 53//71 
f 384//71 403//71 51//71 
f 383//71 51//71 49//71 
f 323//71 385//71 47//71 
f 35//71 33//71 377//71 
f 26//71 24//71 310//71 
f 312//71 404//71 405//71 
f 390//71 388//71 378//71 
f 392//71 391//71 378//71 
f 397//71 394//71 393//71 
f 398//71 373//71 396//71 
f 356//71 399//71 369//71 
f 55//71 402//71 401//71 
f 53//71 382//71 406//71 
f 49//71 407//71 383//71 
f 49//71 408//71 409//71 
f 37//71 35//71 387//71 
f 405//71 313//71 312//71 
f 381//71 389//71 378//71 
f 371//71 366//71 365//71 
f 57//71 401//71 375//71 
f 51//71 403//71 382//71 
f 409//71 410//71 49//71 
f 49//71 47//71 411//71 
f 33//71 31//71 368//71 
f 312//71 378//71 412//71 
f 395//71 369//71 393//71 
f 53//71 406//71 402//71 
f 411//71 408//71 49//71 
f 47//71 413//71 414//71 
f 412//71 404//71 312//71 
f 400//71 393//71 369//71 
f 414//71 411//71 47//71 
f 361//71 378//71 362//71 
f 386//71 413//71 47//71 
f 410//71 407//71 49//71 
f 75//71 73//71 291//71 
f 237//71 225//71 415//71 
f 174//71 173//71 24//71 
o mesh2
f 416//72 74//72 76//72 
f 76//72 417//72 418//72 
f 78//72 419//72 417//72 
f 80//72 420//72 421//72 
f 82//72 422//72 423//72 
f 76//72 424//72 425//72 
f 417//72 76//72 78//72 
f 78//72 426//72 427//72 
f 421//72 78//72 80//72 
f 80//72 428//72 429//72 
f 423//72 80//72 82//72 
f 430//72 431//72 84//72 
f 706//72 69//72 432//72 
f 418//72 424//72 76//72 
f 78//72 433//72 426//72 
f 80//72 434//72 420//72 
f 423//72 428//72 80//72 
f 435//72 436//72 82//72 
f 86//72 437//72 430//72 
f 438//72 437//72 86//72 
f 706//72 439//72 440//72 
f 432//72 441//72 706//72 
f 69//72 442//72 443//72 
f 69//72 444//72 445//72 
f 74//72 416//72 446//72 
f 427//72 419//72 78//72 
f 429//72 434//72 80//72 
f 82//72 84//72 435//72 
f 86//72 88//72 438//72 
f 447//72 438//72 88//72 
f 448//72 447//72 90//72 
f 449//72 448//72 92//72 
f 706//72 450//72 439//72 
f 706//72 451//72 452//72 
f 441//72 453//72 706//72 
f 445//72 442//72 69//72 
f 69//72 454//72 455//72 
f 456//72 69//72 68//72 
f 457//72 68//72 74//72 
f 76//72 425//72 416//72 
f 82//72 458//72 422//72 
f 84//72 431//72 435//72 
f 88//72 90//72 447//72 
f 92//72 94//72 449//72 
f 459//72 449//72 94//72 
f 460//72 459//72 98//72 
f 440//72 461//72 706//72 
f 706//72 462//72 463//72 
f 706//72 464//72 465//72 
f 452//72 466//72 706//72 
f 69//72 467//72 432//72 
f 455//72 444//72 69//72 
f 68//72 457//72 456//72 
f 446//72 468//72 74//72 
f 436//72 458//72 82//72 
f 90//72 92//72 448//72 
f 94//72 96//72 459//72 
f 98//72 103//72 460//72 
f 101//72 469//72 470//72 
f 706//72 471//72 469//72 
f 463//72 450//72 706//72 
f 466//72 464//72 706//72 
f 443//72 467//72 69//72 
f 69//72 472//72 473//72 
f 74//72 468//72 457//72 
f 84//72 86//72 430//72 
f 103//72 101//72 460//72 
f 469//72 101//72 706//72 
f 465//72 462//72 706//72 
f 473//72 454//72 69//72 
f 421//72 433//72 78//72 
f 470//72 460//72 101//72 
f 453//72 451//72 706//72 
f 96//72 98//72 459//72 
f 456//72 472//72 69//72 
f 101//72 474//72 475//72 
f 101//72 476//72 474//72 
f 477//72 101//72 100//72 
f 478//72 100//72 106//72 
f 117//72 706//72 479//72 
f 101//72 480//72 476//72 
f 101//72 477//72 481//72 
f 100//72 478//72 482//72 
f 106//72 483//72 484//72 
f 479//72 485//72 117//72 
f 706//72 486//72 487//72 
f 706//72 488//72 489//72 
f 706//72 490//72 491//72 
f 706//72 101//72 492//72 
f 101//72 493//72 494//72 
f 481//72 480//72 101//72 
f 106//72 484//72 478//72 
f 485//72 495//72 117//72 
f 489//72 486//72 706//72 
f 706//72 496//72 490//72 
f 492//72 497//72 706//72 
f 101//72 498//72 493//72 
f 100//72 482//72 477//72 
f 706//72 499//72 479//72 
f 491//72 488//72 706//72 
f 706//72 500//72 501//72 
f 494//72 492//72 101//72 
f 106//72 502//72 483//72 
f 106//72 108//72 503//72 
f 117//72 504//72 505//72 
f 487//72 499//72 706//72 
f 501//72 506//72 706//72 
f 706//72 507//72 508//72 
f 475//72 498//72 101//72 
f 108//72 509//72 503//72 
f 114//72 510//72 511//72 
f 512//72 510//72 114//72 
f 513//72 512//72 119//72 
f 117//72 514//72 515//72 
f 505//72 516//72 117//72 
f 506//72 496//72 706//72 
f 497//72 507//72 706//72 
f 108//72 517//72 509//72 
f 108//72 518//72 519//72 
f 110//72 520//72 518//72 
f 110//72 521//72 522//72 
f 523//72 524//72 112//72 
f 114//72 119//72 512//72 
f 117//72 525//72 513//72 
f 516//72 514//72 117//72 
f 706//72 526//72 500//72 
f 503//72 502//72 106//72 
f 518//72 108//72 110//72 
f 522//72 527//72 110//72 
f 511//72 523//72 114//72 
f 515//72 525//72 117//72 
f 508//72 526//72 706//72 
f 527//72 520//72 110//72 
f 112//72 528//72 529//72 
f 112//72 530//72 531//72 
f 119//72 117//72 513//72 
f 519//72 517//72 108//72 
f 529//72 110//72 112//72 
f 112//72 524//72 530//72 
f 495//72 504//72 117//72 
f 531//72 528//72 112//72 
f 529//72 521//72 110//72 
f 18//72 532//72 533//72 
f 706//72 534//72 535//72 
f 18//72 536//72 532//72 
f 18//72 537//72 538//72 
f 20//72 539//72 540//72 
f 541//72 542//72 20//72 
f 543//72 544//72 25//72 
f 706//72 545//72 534//72 
f 706//72 546//72 547//72 
f 538//72 536//72 18//72 
f 540//72 18//72 20//72 
f 20//72 25//72 541//72 
f 25//72 23//72 543//72 
f 23//72 548//72 549//72 
f 706//72 550//72 545//72 
f 706//72 551//72 552//72 
f 547//72 553//72 706//72 
f 540//72 537//72 18//72 
f 544//72 541//72 25//72 
f 23//72 554//72 548//72 
f 23//72 706//72 555//72 
f 706//72 556//72 557//72 
f 552//72 550//72 706//72 
f 706//72 558//72 546//72 
f 20//72 559//72 539//72 
f 549//72 543//72 23//72 
f 23//72 560//72 561//72 
f 555//72 562//72 23//72 
f 706//72 563//72 556//72 
f 553//72 551//72 706//72 
f 542//72 559//72 20//72 
f 561//72 564//72 23//72 
f 557//72 555//72 706//72 
f 706//72 565//72 558//72 
f 14//72 566//72 567//72 
f 16//72 568//72 566//72 
f 564//72 554//72 23//72 
f 23//72 569//72 570//72 
f 535//72 563//72 706//72 
f 117//72 571//72 565//72 
f 572//72 124//72 1//72 
f 566//72 14//72 16//72 
f 16//72 533//72 573//72 
f 23//72 574//72 560//72 
f 562//72 569//72 23//72 
f 117//72 575//72 571//72 
f 575//72 117//72 116//72 
f 576//72 116//72 122//72 
f 572//72 122//72 124//72 
f 577//72 1//72 4//72 
f 578//72 6//72 8//72 
f 579//72 8//72 10//72 
f 567//72 580//72 14//72 
f 16//72 581//72 582//72 
f 533//72 16//72 18//72 
f 565//72 706//72 117//72 
f 122//72 572//72 576//72 
f 4//72 583//72 577//72 
f 583//72 4//72 6//72 
f 10//72 584//72 579//72 
f 582//72 568//72 16//72 
f 570//72 574//72 23//72 
f 1//72 577//72 572//72 
f 8//72 579//72 578//72 
f 585//72 10//72 12//72 
f 12//72 586//72 587//72 
f 586//72 12//72 14//72 
f 573//72 581//72 16//72 
f 6//72 578//72 583//72 
f 12//72 588//72 585//72 
f 14//72 589//72 586//72 
f 116//72 576//72 575//72 
f 587//72 588//72 12//72 
f 585//72 584//72 10//72 
f 69//72 590//72 591//72 
f 706//72 592//72 593//72 
f 69//72 594//72 590//72 
f 593//72 69//72 706//72 
f 69//72 595//72 594//72 
f 69//72 596//72 597//72 
f 69//72 598//72 599//72 
f 706//72 600//72 592//72 
f 706//72 601//72 602//72 
f 706//72 603//72 604//72 
f 706//72 605//72 606//72 
f 607//72 608//72 64//72 
f 609//72 607//72 71//72 
f 69//72 610//72 595//72 
f 69//72 611//72 612//72 
f 599//72 596//72 69//72 
f 602//72 600//72 706//72 
f 604//72 613//72 706//72 
f 606//72 614//72 706//72 
f 615//72 616//72 617//72 
f 618//72 619//72 620//72 
f 621//72 619//72 618//72 
f 64//72 66//72 607//72 
f 69//72 622//72 609//72 
f 612//72 610//72 69//72 
f 593//72 598//72 69//72 
f 614//72 603//72 706//72 
f 706//72 623//72 624//72 
f 23//72 625//72 626//72 
f 23//72 627//72 628//72 
f 23//72 629//72 630//72 
f 23//72 631//72 632//72 
f 617//72 633//72 615//72 
f 620//72 634//72 618//72 
f 633//72 617//72 621//72 
f 635//72 636//72 50//72 
f 52//72 637//72 638//72 
f 639//72 637//72 52//72 
f 640//72 641//72 60//72 
f 608//72 640//72 62//72 
f 71//72 69//72 609//72 
f 597//72 611//72 69//72 
f 706//72 642//72 643//72 
f 624//72 605//72 706//72 
f 23//72 644//72 625//72 
f 630//72 627//72 23//72 
f 23//72 645//72 631//72 
f 646//72 647//72 648//72 
f 23//72 618//72 649//72 
f 646//72 650//72 616//72 
f 618//72 633//72 621//72 
f 651//72 38//72 40//72 
f 652//72 40//72 42//72 
f 50//72 52//72 635//72 
f 52//72 54//72 639//72 
f 653//72 654//72 54//72 
f 62//72 64//72 608//72 
f 69//72 655//72 622//72 
f 643//72 601//72 706//72 
f 706//72 656//72 623//72 
f 628//72 644//72 23//72 
f 23//72 657//72 658//72 
f 23//72 659//72 660//72 
f 632//72 661//72 23//72 
f 648//72 662//72 646//72 
f 646//72 663//72 664//72 
f 665//72 590//72 663//72 
f 618//72 666//72 649//72 
f 634//72 666//72 618//72 
f 40//72 652//72 667//72 
f 42//72 668//72 669//72 
f 668//72 42//72 44//72 
f 44//72 46//72 670//72 
f 638//72 635//72 52//72 
f 54//72 56//72 653//72 
f 66//72 71//72 607//72 
f 613//72 642//72 706//72 
f 658//72 629//72 23//72 
f 661//72 659//72 23//72 
f 664//72 647//72 646//72 
f 663//72 646//72 665//72 
f 615//72 646//72 616//72 
f 646//72 671//72 672//72 
f 42//72 669//72 652//72 
f 44//72 673//72 674//72 
f 46//72 675//72 670//72 
f 46//72 676//72 677//72 
f 48//72 678//72 679//72 
f 50//72 680//72 681//72 
f 654//72 639//72 54//72 
f 682//72 653//72 56//72 
f 641//72 682//72 58//72 
f 591//72 655//72 69//72 
f 590//72 683//72 684//72 
f 706//72 23//72 685//72 
f 660//72 657//72 23//72 
f 665//72 683//72 590//72 
f 672//72 650//72 646//72 
f 686//72 22//72 28//72 
f 44//72 674//72 668//72 
f 677//72 675//72 46//72 
f 679//72 46//72 48//72 
f 50//72 687//72 688//72 
f 636//72 680//72 50//72 
f 58//72 60//72 641//72 
f 684//72 591//72 590//72 
f 626//72 685//72 23//72 
f 649//72 645//72 23//72 
f 23//72 686//72 689//72 
f 686//72 23//72 22//72 
f 690//72 30//72 32//72 
f 691//72 34//72 36//72 
f 692//72 36//72 38//72 
f 44//72 693//72 673//72 
f 679//72 676//72 46//72 
f 681//72 687//72 50//72 
f 60//72 62//72 640//72 
f 662//72 671//72 646//72 
f 23//72 694//72 695//72 
f 28//72 690//72 686//72 
f 690//72 28//72 30//72 
f 696//72 32//72 34//72 
f 38//72 651//72 692//72 
f 670//72 693//72 44//72 
f 56//72 58//72 682//72 
f 695//72 618//72 23//72 
f 23//72 697//72 698//72 
f 689//72 699//72 23//72 
f 34//72 691//72 696//72 
f 40//72 667//72 651//72 
f 48//72 700//72 701//72 
f 48//72 688//72 702//72 
f 685//72 656//72 706//72 
f 23//72 703//72 704//72 
f 23//72 705//72 697//72 
f 32//72 696//72 690//72 
f 701//72 678//72 48//72 
f 688//72 48//72 50//72 
f 698//72 703//72 23//72 
f 36//72 692//72 691//72 
f 704//72 694//72 23//72 
f 702//72 700//72 48//72 
f 699//72 705//72 23//72 
f 580//72 589//72 14//72 
f 112//72 114//72 523//72 
f 461//72 471//72 706//72 
o mesh3
f 469//73 471//74 252//74 
f 470//75 469//73 247//76 
f 460//77 470//75 274//78 
f 459//79 460//77 273//80 
f 449//81 459//79 288//82 
f 448//83 449//81 275//84 
f 447//85 448//83 276//86 
f 438//87 447//85 277//88 
f 437//89 438//87 265//90 
f 430//91 437//89 278//92 
f 431//93 430//91 253//94 
f 435//95 431//93 266//96 
f 436//97 435//95 267//98 
f 458//99 436//97 280//100 
f 422//101 458//99 279//102 
f 423//103 422//101 281//104 
f 428//105 423//103 248//106 
f 429//107 428//105 254//108 
f 434//109 429//107 256//110 
f 420//111 434//109 255//112 
f 421//113 420//111 282//114 
f 433//115 421//113 257//116 
f 426//117 433//115 268//118 
f 427//119 426//117 290//120 
f 419//121 427//119 289//122 
f 417//123 419//121 295//124 
f 418//125 417//123 283//126 
f 424//127 418//125 285//128 
f 425//129 424//127 284//130 
f 416//131 425//129 292//132 
f 446//133 416//131 291//134 
f 468//135 446//133 294//136 
f 457//137 468//135 293//138 
f 456//139 457//137 296//140 
f 472//141 456//139 297//142 
f 473//143 472//141 298//144 
f 454//145 473//143 287//146 
f 455//147 454//145 286//148 
f 444//149 455//147 242//150 
f 445//151 444//149 241//152 
f 442//153 445//151 244//154 
f 443//155 442//153 243//156 
f 467//157 443//155 250//158 
f 432//159 467//157 249//160 
f 441//161 432//159 269//162 
f 453//163 441//161 259//164 
f 451//165 453//163 258//166 
f 452//167 451//165 260//168 
f 466//169 452//167 262//170 
f 464//171 466//169 261//172 
f 465//173 464//171 270//174 
f 462//175 465//173 272//176 
f 463//177 462//175 271//178 
f 450//179 463//177 264//180 
f 439//181 450//179 263//182 
f 440//183 439//181 251//184 
f 461//185 440//183 246//186 
f 471//74 461//185 245//185 
f 245//185 252//74 471//74 
f 246//186 245//185 461//185 
f 251//184 246//186 440//183 
f 263//182 251//184 439//181 
f 264//180 263//182 450//179 
f 271//178 264//180 463//177 
f 272//176 271//178 462//175 
f 270//174 272//176 465//173 
f 261//172 270//174 464//171 
f 262//170 261//172 466//169 
f 260//168 262//170 452//167 
f 258//166 260//168 451//165 
f 259//164 258//166 453//163 
f 269//162 259//164 441//161 
f 249//160 269//162 432//159 
f 250//158 249//160 467//157 
f 243//156 250//158 443//155 
f 244//154 243//156 442//153 
f 241//152 244//154 445//151 
f 242//150 241//152 444//149 
f 286//148 242//150 455//147 
f 287//146 286//148 454//145 
f 298//144 287//146 473//143 
f 297//142 298//144 472//141 
f 296//140 297//142 456//139 
f 293//138 296//140 457//137 
f 294//136 293//138 468//135 
f 291//134 294//136 446//133 
f 292//132 291//134 416//131 
f 284//130 292//132 425//129 
f 285//128 284//130 424//127 
f 283//126 285//128 418//125 
f 295//124 283//126 417//123 
f 289//122 295//124 419//121 
f 290//120 289//122 427//119 
f 268//118 290//120 426//117 
f 257//116 268//118 433//115 
f 282//114 257//116 421//113 
f 255//112 282//114 420//111 
f 256//110 255//112 434//109 
f 254//108 256//110 429//107 
f 248//106 254//108 428//105 
f 281//104 248//106 423//103 
f 279//102 281//104 422//101 
f 280//100 279//102 458//99 
f 267//98 280//100 436//97 
f 266//96 267//98 435//95 
f 253//94 266//96 431//93 
f 278//92 253//94 430//91 
f 265//90 278//92 437//89 
f 277//88 265//90 438//87 
f 276//86 277//88 447//85 
f 275//84 276//86 448//83 
f 288//82 275//84 449//81 
f 273//80 288//82 459//79 
f 274//78 273//80 460//77 
f 247//76 274//78 470//75 
f 252//74 247//76 469//73 
o mesh4
f 697//187 705//188 314//188 
f 698//189 697//187 313//190 
f 703//191 698//189 405//192 
f 704//193 703//191 404//194 
f 694//195 704//193 412//196 
f 695//197 694//195 378//198 
f 618//199 695//197 361//200 
f 633//201 618//199 370//202 
f 615//203 633//201 365//204 
f 646//205 615//203 364//206 
f 665//207 646//205 373//208 
f 683//209 665//207 398//210 
f 684//211 683//209 393//212 
f 591//213 684//211 400//214 
f 655//215 591//213 399//216 
f 622//217 655//215 356//218 
f 609//219 622//217 355//220 
f 607//221 609//219 358//222 
f 608//223 607//221 357//224 
f 640//225 608//223 374//226 
f 641//227 640//225 367//228 
f 682//229 641//227 375//230 
f 653//231 682//229 401//232 
f 654//233 653//231 402//234 
f 639//235 654//233 406//236 
f 637//237 639//235 382//238 
f 638//239 637//237 403//240 
f 635//241 638//239 384//242 
f 636//243 635//241 383//244 
f 680//245 636//243 407//246 
f 681//247 680//245 410//248 
f 687//249 681//247 409//250 
f 688//251 687//249 408//252 
f 702//253 688//251 411//254 
f 700//255 702//253 414//256 
f 701//257 700//255 413//258 
f 678//259 701//257 386//260 
f 679//261 678//259 385//262 
f 676//263 679//261 323//264 
f 677//265 676//263 336//266 
f 675//267 677//265 338//268 
f 670//269 675//267 337//270 
f 693//271 670//269 340//272 
f 673//273 693//271 339//274 
f 674//275 673//273 376//276 
f 668//277 674//275 342//278 
f 669//279 668//277 341//280 
f 652//281 669//279 344//282 
f 667//283 652//281 343//284 
f 651//285 667//283 360//286 
f 692//287 651//285 359//288 
f 691//289 692//287 387//290 
f 696//291 691//289 377//292 
f 690//293 696//291 368//294 
f 686//295 690//293 311//296 
f 689//297 686//295 310//298 
f 699//299 689//297 325//300 
f 705//188 699//299 324//299 
f 324//299 314//188 705//188 
f 325//300 324//299 699//299 
f 310//298 325//300 689//297 
f 311//296 310//298 686//295 
f 368//294 311//296 690//293 
f 377//292 368//294 696//291 
f 387//290 377//292 691//289 
f 359//288 387//290 692//287 
f 360//286 359//288 651//285 
f 343//284 360//286 667//283 
f 344//282 343//284 652//281 
f 341//280 344//282 669//279 
f 342//278 341//280 668//277 
f 376//276 342//278 674//275 
f 339//274 376//276 673//273 
f 340//272 339//274 693//271 
f 337//270 340//272 670//269 
f 338//268 337//270 675//267 
f 336//266 338//268 677//265 
f 323//264 336//266 676//263 
f 385//262 323//264 679//261 
f 386//260 385//262 678//259 
f 413//258 386//260 701//257 
f 414//256 413//258 700//255 
f 411//254 414//256 702//253 
f 408//252 411//254 688//251 
f 409//250 408//252 687//249 
f 410//248 409//250 681//247 
f 407//246 410//248 680//245 
f 383//244 407//246 636//243 
f 384//242 383//244 635//241 
f 403//240 384//242 638//239 
f 382//238 403//240 637//237 
f 406//236 382//238 639//235 
f 402//234 406//236 654//233 
f 401//232 402//234 653//231 
f 375//230 401//232 682//229 
f 367//228 375//230 641//227 
f 374//226 367//228 640//225 
f 357//224 374//226 608//223 
f 358//222 357//224 607//221 
f 355//220 358//222 609//219 
f 356//218 355//220 622//217 
f 399//216 356//218 655//215 
f 400//214 399//216 591//213 
f 393//212 400//214 684//211 
f 398//210 393//212 683//209 
f 373//208 398//210 665//207 
f 364//206 373//208 646//205 
f 365//204 364//206 615//203 
f 370//202 365//204 633//201 
f 361//200 370//202 618//199 
f 378//198 361//200 695//197 
f 412//196 378//198 694//195 
f 404//194 412//196 704//193 
f 405//192 404//194 703//191 
f 313//190 405//192 698//189 
f 314//188 313//190 697//187 
o mesh5
f 586//301 589//302 150//302 
f 587//303 586//301 149//304 
f 588//305 587//303 176//306 
f 585//307 588//305 175//308 
f 584//309 585//307 177//310 
f 579//311 584//309 167//312 
f 578//313 579//311 166//314 
f 583//315 578//313 168//316 
f 577//317 583//315 169//318 
f 572//319 577//317 157//320 
f 576//321 572//319 156//322 
f 575//323 576//321 170//324 
f 571//325 575//323 171//326 
f 565//327 571//325 182//328 
f 558//329 565//327 178//330 
f 546//331 558//329 179//332 
f 547//333 546//331 151//334 
f 553//335 547//333 139//336 
f 551//337 553//335 138//338 
f 552//339 551//337 158//340 
f 550//341 552//339 133//342 
f 545//343 550//341 132//344 
f 534//345 545//343 140//346 
f 535//347 534//345 152//348 
f 563//349 535//347 154//350 
f 556//351 563//349 153//352 
f 557//353 556//351 172//354 
f 555//355 557//353 160//356 
f 562//357 555//355 159//358 
f 569//359 562//357 173//360 
f 570//361 569//359 174//362 
f 574//363 570//361 162//364 
f 560//365 574//363 161//366 
f 561//367 560//365 141//368 
f 564//369 561//367 128//370 
f 554//371 564//369 127//372 
f 548//373 554//371 134//374 
f 549//375 548//373 129//376 
f 543//377 549//375 126//378 
f 544//379 543//377 125//380 
f 541//381 544//379 131//382 
f 542//383 541//381 130//384 
f 559//385 542//383 136//386 
f 539//387 559//385 135//388 
f 540//389 539//387 163//390 
f 537//391 540//389 137//392 
f 538//393 537//391 142//394 
f 536//395 538//393 144//396 
f 532//397 536//395 143//398 
f 533//399 532//397 155//400 
f 573//401 533//399 145//402 
f 581//403 573//401 181//404 
f 582//405 581//403 180//406 
f 568//407 582//405 165//408 
f 566//409 568//407 164//410 
f 567//411 566//409 146//412 
f 580//413 567//411 148//414 
f 589//302 580//413 147//413 
f 147//413 150//302 589//302 
f 148//414 147//413 580//413 
f 146//412 148//414 567//411 
f 164//410 146//412 566//409 
f 165//408 164//410 568//407 
f 180//406 165//408 582//405 
f 181//404 180//406 581//403 
f 145//402 181//404 573//401 
f 155//400 145//402 533//399 
f 143//398 155//400 532//397 
f 144//396 143//398 536//395 
f 142//394 144//396 538//393 
f 137//392 142//394 537//391 
f 163//390 137//392 540//389 
f 135//388 163//390 539//387 
f 136//386 135//388 559//385 
f 130//384 136//386 542//383 
f 131//382 130//384 541//381 
f 125//380 131//382 544//379 
f 126//378 125//380 543//377 
f 129//376 126//378 549//375 
f 134//374 129//376 548//373 
f 127//372 134//374 554//371 
f 128//370 127//372 564//369 
f 141//368 128//370 561//367 
f 161//366 141//368 560//365 
f 162//364 161//366 574//363 
f 174//362 162//364 570//361 
f 173//360 174//362 569//359 
f 159//358 173//360 562//357 
f 160//356 159//358 555//355 
f 172//354 160//356 557//353 
f 153//352 172//354 556//351 
f 154//350 153//352 563//349 
f 152//348 154//350 535//347 
f 140//346 152//348 534//345 
f 132//344 140//346 545//343 
f 133//342 132//344 550//341 
f 158//340 133//342 552//339 
f 138//338 158//340 551//337 
f 139//336 138//338 553//335 
f 151//334 139//336 547//333 
f 179//332 151//334 546//331 
f 178//330 179//332 558//329 
f 182//328 178//330 565//327 
f 171//326 182//328 571//325 
f 170//324 171//326 575//323 
f 156//322 170//324 576//321 
f 157//320 156//322 572//319 
f 169//318 157//320 577//317 
f 168//316 169//318 583//315 
f 166//314 168//316 578//313 
f 167//312 166//314 579//311 
f 177//310 167//312 584//309 
f 175//308 177//310 585//307 
f 176//306 175//308 588//305 
f 149//304 176//306 587//303 
f 150//302 149//304 586//301 
o mesh6
f 530//415 524//416 214//416 
f 531//417 530//415 213//418 
f 528//419 531//417 230//420 
f 529//421 528//419 229//422 
f 521//423 529//421 231//424 
f 522//425 521//423 238//426 
f 527//427 522//425 233//428 
f 520//429 527//427 232//430 
f 518//431 520//429 239//432 
f 519//433 518//431 234//434 
f 517//435 519//433 236//436 
f 509//437 517//435 235//438 
f 503//439 509//437 240//440 
f 502//441 503//439 222//442 
f 483//443 502//441 221//444 
f 484//445 483//443 223//446 
f 478//447 484//445 193//448 
f 482//449 478//447 192//450 
f 477//451 482//449 195//452 
f 481//453 477//451 194//454 
f 480//455 481//453 197//456 
f 476//457 480//455 196//458 
f 474//459 476//457 208//460 
f 475//461 474//459 215//462 
f 498//463 475//461 217//464 
f 493//465 498//463 216//466 
f 494//467 493//465 224//468 
f 492//469 494//467 219//470 
f 497//471 492//469 218//472 
f 507//473 497//471 225//474 
f 508//475 507//473 237//476 
f 526//477 508//475 227//478 
f 500//479 526//477 226//480 
f 501//481 500//479 209//482 
f 506//483 501//481 186//484 
f 496//485 506//483 185//486 
f 490//487 496//485 198//488 
f 491//489 490//487 187//490 
f 488//491 491//489 184//492 
f 489//493 488//491 183//494 
f 486//495 489//493 189//496 
f 487//497 486//495 188//498 
f 499//499 487//497 200//500 
f 479//501 499//499 199//502 
f 485//503 479//501 211//504 
f 495//505 485//503 210//506 
f 504//507 495//505 220//508 
f 505//509 504//507 228//510 
f 516//511 505//509 191//512 
f 514//513 516//511 190//514 
f 515//515 514//513 201//516 
f 525//517 515//515 203//518 
f 513//519 525//517 202//520 
f 512//521 513//519 204//522 
f 510//523 512//521 205//524 
f 511//525 510//523 212//526 
f 523//527 511//525 207//528 
f 524//416 523//527 206//527 
f 206//527 214//416 524//416 
f 207//528 206//527 523//527 
f 212//526 207//528 511//525 
f 205//524 212//526 510//523 
f 204//522 205//524 512//521 
f 202//520 204//522 513//519 
f 203//518 202//520 525//517 
f 201//516 203//518 515//515 
f 190//514 201//516 514//513 
f 191//512 190//514 516//511 
f 228//510 191//512 505//509 
f 220//508 228//510 504//507 
f 210//506 220//508 495//505 
f 211//504 210//506 485//503 
f 199//502 211//504 479//501 
f 200//500 199//502 499//499 
f 188//498 200//500 487//497 
f 189//496 188//498 486//495 
f 183//494 189//496 489//493 
f 184//492 183//494 488//491 
f 187//490 184//492 491//489 
f 198//488 187//490 490//487 
f 185//486 198//488 496//485 
f 186//484 185//486 506//483 
f 209//482 186//484 501//481 
f 226//480 209//482 500//479 
f 227//478 226//480 526//477 
f 237//476 227//478 508//475 
f 225//474 237//476 507//473 
f 218//472 225//474 497//471 
f 219//470 218//472 492//469 
f 224//468 219//470 494//467 
f 216//466 224//468 493//465 
f 217//464 216//466 498//463 
f 215//462 217//464 475//461 
f 208//460 215//462 474//459 
f 196//458 208//460 476//457 
f 197//456 196//458 480//455 
f 194//454 197//456 481//453 
f 195//452 194//454 477//451 
f 192//450 195//452 482//449 
f 193//448 192//450 478//447 
f 223//446 193//448 484//445 
f 221//444 223//446 483//443 
f 222//442 221//444 502//441 
f 240//440 222//442 503//439 
f 235//438 240//440 509//437 
f 236//436 235//438 517//435 
f 234//434 236//436 519//433 
f 239//432 234//434 518//431 
f 232//430 239//432 520//429 
f 233//428 232//430 527//427 
f 238//426 233//428 522//425 
f 231//424 238//426 521//423 
f 229//422 231//424 529//421 
f 230//420 229//422 528//419 
f 213//418 230//420 531//417 
f 214//416 213//418 530//415 
o mesh7
f 623//529 656//530 331//530 
f 624//531 623//529 346//532 
f 605//533 624//531 348//534 
f 606//535 605//533 347//536 
f 614//537 606//535 333//538 
f 603//539 614//537 332//540 
f 604//541 603//539 349//542 
f 613//543 604//541 335//544 
f 642//545 613//543 334//546 
f 643//547 642//545 350//548 
f 601//549 643//547 352//550 
f 602//551 601//549 351//552 
f 600//553 602//551 300//554 
f 592//555 600//553 299//556 
f 593//557 592//555 302//558 
f 598//559 593//557 301//560 
f 599//561 598//559 303//562 
f 596//563 599//561 307//564 
f 597//565 596//563 306//566 
f 611//567 597//565 320//568 
f 612//569 611//567 319//570 
f 610//571 612//569 322//572 
f 595//573 610//571 321//574 
f 594//575 595//573 305//576 
f 590//577 594//575 304//578 
f 663//579 590//577 308//580 
f 664//581 663//579 309//582 
f 647//583 664//581 353//584 
f 648//585 647//583 354//586 
f 662//587 648//585 369//588 
f 671//589 662//587 395//590 
f 672//591 671//589 394//592 
f 650//593 672//591 397//594 
f 616//595 650//593 396//596 
f 617//597 616//595 372//598 
f 621//599 617//597 366//600 
f 619//601 621//599 371//602 
f 620//603 619//601 363//604 
f 634//605 620//603 362//606 
f 666//607 634//605 379//608 
f 649//609 666//607 388//610 
f 645//611 649//609 390//612 
f 631//613 645//611 389//614 
f 632//615 631//613 381//616 
f 661//617 632//615 380//618 
f 659//619 661//617 391//620 
f 660//621 659//619 392//622 
f 657//623 660//621 312//624 
f 658//625 657//623 326//626 
f 629//627 658//625 328//628 
f 630//629 629//627 327//630 
f 627//631 630//629 316//632 
f 628//633 627//631 315//634 
f 644//635 628//633 318//636 
f 625//637 644//635 317//638 
f 626//639 625//637 345//640 
f 685//641 626//639 330//642 
f 656//530 685//641 329//641 
f 329//641 331//530 656//530 
f 330//642 329//641 685//641 
f 345//640 330//642 626//639 
f 317//638 345//640 625//637 
f 318//636 317//638 644//635 
f 315//634 318//636 628//633 
f 316//632 315//634 627//631 
f 327//630 316//632 630//629 
f 328//628 327//630 629//627 
f 326//626 328//628 658//625 
f 312//624 326//626 657//623 
f 392//622 312//624 660//621 
f 391//620 392//622 659//619 
f 380//618 391//620 661//617 
f 381//616 380//618 632//615 
f 389//614 381//616 631//613 
f 390//612 389//614 645//611 
f 388//610 390//612 649//609 
f 379//608 388//610 666//607 
f 362//606 379//608 634//605 
f 363//604 362//606 620//603 
f 371//602 363//604 619//601 
f 366//600 371//602 621//599 
f 372//598 366//600 617//597 
f 396//596 372//598 616//595 
f 397//594 396//596 650//593 
f 394//592 397//594 672//591 
f 395//590 394//592 671//589 
f 369//588 395//590 662//587 
f 354//586 369//588 648//585 
f 353//584 354//586 647//583 
f 309//582 353//584 664//581 
f 308//580 309//582 663//579 
f 304//578 308//580 590//577 
f 305//576 304//578 594//575 
f 321//574 305//576 595//573 
f 322//572 321//574 610//571 
f 319//570 322//572 612//569 
f 320//568 319//570 611//567 
f 306//566 320//568 597//565 
f 307//564 306//566 596//563 
f 303//562 307//564 599//561 
f 301//560 303//562 598//559 
f 302//558 301//560 593//557 
f 299//556 302//558 592//555 
f 300//554 299//556 600//553 
f 351//552 300//554 602//551 
f 352//550 351//552 601//549 
f 350//548 352//550 643//547 
f 334//546 350//548 642//545 
f 335//544 334//546 613//543 
f 349//542 335//544 604//541 
f 332//540 349//542 603//539 
f 333//538 332//540 614//537 
f 347//536 333//538 606//535 
f 348//534 347//536 605//533 
f 346//532 348//534 624//531 
f 331//530 346//532 623//529 
